<svg data-name="圖層 1" xmlns="http://www.w3.org/2000/svg" viewBox="0 0 1000 1000"><defs><linearGradient id="a" x1="176.45" y1="788.09" x2="849.77" y2="114.77" gradientUnits="userSpaceOnUse"><stop offset="0" stop-color="#000072"/><stop offset=".11" stop-color="#000474"/><stop offset=".21" stop-color="#000f7b"/><stop offset=".3" stop-color="#012187"/><stop offset=".4" stop-color="#023c97"/><stop offset=".49" stop-color="#035dac"/><stop offset=".5" stop-color="#0363b0"/><stop offset="1" stop-color="#000173"/></linearGradient></defs><path d="M911.93 342.31c26-44.46 44-125.87-31.77-197C830 98.22 770.71 91.22 713.09 125.6a197.86 197.86 0 00-29.52 21.74c-32.39-14.76-99.74-33.85-216.62-19.26s-177.47 49.71-205.22 72c-22.79-11.71-60.9-26-101.58-18.4-36.2 6.74-66.29 28.54-89.43 64.8C14.83 334 52.26 408.54 88.41 445.23c-37.1 213.92 49.28 322.63 131 376.64l3.22 2.12c39 25.14 85.65 44.23 138.65 56.72a568.39 568.39 0 00393.31-49.14c86.13-44.88 145.83-103.5 177.41-174.23 40.14-89.7 33.37-195.61-20.07-315.03z" fill="url(#a)"/><path d="M272.41 477.66l-31.82-176.09L298.9 291q63.5-11 71.5 31.94 3.41 18.81-7 33.16a35.21 35.21 0 01-10.13 9l.26 1.4q25.67 1.37 36.12 22a51.63 51.63 0 014.38 13.6q6 33-23.37 51.24-14.43 9.09-35.34 12.86zm16.42-110.92l20.44-3.69q30-7.59 27.9-28.79-3.14-17.43-23.24-17.15a71.65 71.65 0 00-12.25 1.25l-20.91 3.78zm14 77.36l24.39-4.41q36.9-6.9 32.34-33.43-4.83-24.08-41.58-17.68L293.57 393zM490 441.71q-31.37 5.66-53.85-12.58Q416.41 413 411.17 384q-6.17-34.16 12.44-58.62 14.61-18.72 36.91-22.75 33.21-6 52.53 18.58 10.94 14.1 14.76 35.23 1.89 10.45 1.23 16.09l-82.23 14.86q7.41 23.85 28.89 27.17a43.67 43.67 0 0014.09-.39q15.29-3 28.29-14.71l15.7 19.24A81.17 81.17 0 01490 441.71zm-47.78-77.25l54.36-9.82q-4.67-25.78-25.23-25.43a30.14 30.14 0 00-5.43.5q-16 2.9-21.74 19a44.62 44.62 0 00-1.99 15.75zm160.65 56.85q-22.08 4-36-10.77A41.43 41.43 0 01556.24 389q-5-27.87 24.65-45.47 16-9.62 43.11-17.63-5.5-22.52-26.69-18.93-15.28 3-34.43 19.18l-16.7-20.73q25.61-22.86 52.33-27.69 44.6-8.06 58.63 36.42a122.12 122.12 0 013.09 13.12L674.3 405l-28.3 5.16-5.34-13.66-.7.12q-17.34 21.12-37.09 24.69zm6.47-29.24q12.74-2.54 23.39-17.9l-4.82-26.72q-40.6 14.3-38.72 32.67 2.47 13.71 17.32 12.22a16.65 16.65 0 002.83-.27zm100.73 6.51L686 265.47l28.57-5.17 6.56 23.05.93-.17q8.17-23.79 25.73-31.52a33.4 33.4 0 017.27-2.27 40.92 40.92 0 0116.34.17l-.81 31.33a47.85 47.85 0 00-14.36.19q-16 2.9-23.29 22.44a62.92 62.92 0 00-2.63 9.35l14.35 79.45zM245.85 751.35L214 575.26l35.31-6.38 26.48 146.58 71.32-12.88 5.33 29.5zm190.62-31.09q-27 4.88-49-11-22.15-16.38-27.69-47.05-6.37-35.31 13.47-59.53a62.27 62.27 0 0138-22.21q26.94-4.87 48.82 11.32 22.16 16.39 27.74 47.29 6.33 35.07-13.52 59.29a61.92 61.92 0 01-37.82 21.89zm-5.17-28.57q19.05-3.44 21.65-26.22a69.39 69.39 0 00-1-20q-5.42-30-23.27-35.85a25.61 25.61 0 00-12.35-.65q-18.81 3.4-21.77 25.52a71.3 71.3 0 00.94 21.18q5.3 29.28 22.92 35.2a25.73 25.73 0 0012.88.82zm131.08 5.82q-22.08 4-36-10.76a41.39 41.39 0 01-10.62-21.59q-5-27.88 24.65-45.48 16-9.6 43.11-17.62-5.5-22.51-26.69-18.93-15.29 3-34.44 19.18l-16.7-20.74q25.61-22.84 52.31-27.68 44.61-8.07 58.64 36.42a122.12 122.12 0 013.09 13.12l14.06 77.82-28.34 5.12-5.35-13.67-.69.13q-17.3 21.12-37.03 24.68zm6.47-29.23q12.72-2.55 23.39-17.9l-4.83-26.72Q546.82 638 548.7 656.32q2.47 13.68 17.3 12.23a17.73 17.73 0 002.85-.27zm100.73 6.5l-24.05-133.11 28.57-5.16 5.47 17 .93-.16q17.87-24.58 39.43-28.72 41.21-7 51.05 46.19l15 82.93-35.08 6.34-14.22-78.75q-4.17-23-16.49-24.85a27.11 27.11 0 00-7.37.37q-11.14 2-20.88 14.57c-1.3 1.68-2.72 3.53-4.27 5.57l16.54 91.53z" fill="#fff"/></svg>