<svg id="圖層_1" data-name="圖層 1" xmlns="http://www.w3.org/2000/svg" viewBox="0 0 1321.82609 493.04348"><path d="M458.14238,267.97512c-.23895.50226-.48828.998-.75668,1.48092a31.10885,31.10885,0,0,1,2.88274,3.86221,25.97776,25.97776,0,0,1,2.03555-3.0006A24.62542,24.62542,0,0,1,458.14238,267.97512Z" style="fill:#fff"/><path d="M463.50209,213.432a47.48083,47.48083,0,0,1-7.11276,14.97243,24.13732,24.13732,0,0,1,8.72508-4.70841,27.054,27.054,0,0,1-1.63146-9.90044C463.48457,213.67543,463.49892,213.55254,463.50209,213.432Z" style="fill:#fff"/><path d="M452.65492,389.53543c-.26591.19483-.51175.40781-.78581.59495a101.56473,101.56473,0,0,1-16.97591,8.82733c-2.06972.90734-4.02474,1.76435-5.86116,2.64647a16.89937,16.89937,0,0,1-10.38163,1.386c-10.95688-2.01995-19.01823-6.72488-24.41367-14.29348-3.71751,3.78094-9.106,7.3427-16.9518,9.939a76.39649,76.39649,0,0,1-10.23233,2.44764c-1.09311.20528-2.18652.40832-3.26975.64317a16.89331,16.89331,0,0,1-3.58188.384q-.30828,0-.61688-.01119c-12.7477-.46547-21.4957-4.898-26.76129-13.7117a32.98871,32.98871,0,0,1-17.87275,11.39527,78.27973,78.27973,0,0,1-10.30335,1.80561c-1.08832.1373-2.17415.27262-3.24849.43776a16.91523,16.91523,0,0,1-5.36649-.03753c-.93722-.15731-1.86121-.29722-2.77382-.4359-2.42976-.36942-4.942-.75126-7.66279-1.386-8.32129-1.94117-14.59232-6.85858-18.00881-13.58644-.32836.55344-.62913,1.1141-.96636,1.66519-5.83662,9.53884-15.80124,14.79213-28.05849,14.79213a49.38315,49.38315,0,0,1-6.76961-.48772c-6.72271-.93492-24.58092-3.41861-32.35722-21.89923-2.76674-6.575-5.37164-19.54589,8.26824-32.541q2.80841-2.67579,5.60947-5.3609c1.182-1.13125,2.3839-2.27642,3.577-3.41637-9.08052-5.37518-14.60593-15.01766-14.63457-26.5342l-.0228-8.88027c-.06561-25.01154-.13321-50.8745.05889-76.353a38.75206,38.75206,0,0,1,1.07633-8.94116c-5.81164-4.29935-9.68658-11.19472-10.73409-19.851-2.79078-23.06652,12.19134-30.59312,18.6964-32.73621l.31488-.11643a24.41249,24.41249,0,0,1,6.86311-1.64866c.65218-3.1,1.52317-5.91136,2.303-8.42847.29741-.96.59588-1.91955.873-2.88255,4.63093-16.09237,14.59654-24.25182,29.61979-24.25182.61415,0,1.24427.01317,1.8952.04075a83.45451,83.45451,0,0,1,28.3252,6.30315,28.04184,28.04184,0,0,1,6.92712,4.107,45.08311,45.08311,0,0,1,9.1706-1.00463q.3136-.00951.62993-.00944c7.40781,0,13.259,3.91675,16.0874,6.2512,2.25573,1.862,4.54464,3.68315,6.96775,5.61115q.97947.7791,1.966,1.56666c4.32414-13.58322,15.7181-21.82182,32.28831-22.63273,1.99845-.09792,3.78635-.14539,5.46577-.14539,2.20988,0,4.24517.08077,6.22219.24678,13.87436,1.16555,21.75025,6.794,26.41983,14.562,5.45812-2.54631,10.82392-5.047,16.1937-7.54088a38.90726,38.90726,0,0,1,16.4498-3.79163,34.02786,34.02786,0,0,1,28.48749,15.52687A37.85647,37.85647,0,0,1,458.14,153.889a28.21294,28.21294,0,0,1,14.27528-3.5963c5.56288.01193,11.12706.01554,16.72081.01554l9.48169-.00261a33.21227,33.21227,0,0,1,7.47509-11.9614c7.95287-7.97206,18.3742-9.22819,26.56458-9.43173,1.12392-.028,2.19379-.04225,3.225-.04523,4.57073-25.026-.40887-55.75836-30.22618-83.76776C476.34447,17.56823,441.658,13.47192,407.96553,33.575a115.83185,115.83185,0,0,0-17.26606,12.71142c-18.9356-8.63188-58.32157-19.79193-126.66224-11.25908-68.35117,8.545-103.77727,29.0656-120.00229,42.088-13.32656-6.849-35.607-15.19373-59.4-10.75956-21.16442,3.93963-38.75747,16.68944-52.2926,37.89257C-.33951,155.45787,21.54885,199.02,42.68594,220.47649,20.9941,345.56325,71.50514,409.12953,119.301,440.71361l1.88426,1.2401c22.80141,14.70142,50.08042,25.86159,81.071,33.16652a332.41984,332.41984,0,0,0,229.98348-28.735q40.28247-20.99325,67.2344-48.69972c-8.46594-.02323-17.01655-.0533-25.56213-.09269C467.39114,397.56266,458.68545,395.36092,452.65492,389.53543Z" style="fill:#fff"/><path d="M467.50807,200.11943c-.71095-.104-1.4045-.23286-2.08488-.381a36.79344,36.79344,0,0,1-.19738,4.88436A24.15286,24.15286,0,0,1,467.50807,200.11943Z" style="fill:#fff"/><path d="M457.764,349.59793c.08629.11134.15532.23.23988.34209a26.65689,26.65689,0,0,1,10.67357-3.34045c-.00037-4.41578.00031-8.79056.0041-13.16583a65.70929,65.70929,0,0,1,1.50049-15.11409,27.68025,27.68025,0,0,1-7.2-6.29333,43.501,43.501,0,0,1-9.6001,16.08281,42.34863,42.34863,0,0,1-9.04243,7.236A104.04566,104.04566,0,0,1,457.764,349.59793Z" style="fill:#fff"/><path d="M451.37866,234.1698c.05673.06225.1155.122.17192.18477.1473-.26355.28548-.52748.446-.78967Q451.6905,233.87059,451.37866,234.1698Z" style="fill:#fff"/><path d="M1250.93262,183.46827c-11.60825-8.52179-21.03054-6.38367-27.71945,6.36155-4.1175,7.84544-7.59755,9.00328-14.88793,4.09457-8.81995-5.93833-14.5922-14.4324-19.56155-24.60323,2.13843-.003,3.36231-.05119,4.582.0005q27.03129,1.144,54.06216,2.30127c6.67866.27536,10.16772-2.95611,10.66525-9.67776.49306-6.66151-2.05406-10.521-9.04945-10.95291-3.7674-.23261-7.51889-.72244-11.58178-1.12653,9.192-13.69579,7.55487-20.85807-7.36587-26.95246-9.54562-3.899-19.8717-6.21368-30.06328-8.0296-3.61139-.64341-9.65707,1.18817-11.31835,3.89725-1.70147,2.77433-.3345,8.45183,1.37312,12.06229,2.74152,5.79717,6.86915,10.93875,10.58585,16.62482-18.47969,3.361-20.44807,2.04928-23.40655-14.922-.13426-.77016-.16856-1.55821-.23938-2.3388-.95531-10.52322-6.95762-17.04606-17.008-18.68155a76.97559,76.97559,0,0,0-22.4766-.35476c-8.86865,1.21164-13.3442,7.80668-12.95341,16.825.23665,5.45893.96847,10.89625,1.57566,17.39075-12.25253-.53431-23.97944-1.292-35.71505-1.47234-8.01071-.12314-11.6008,3.47912-11.67249,10.47165-.0727,7.09095,3.208,9.94816,11.71393,10.274,11.75412.45032,23.5039,1.11858,35.26182,1.31093,4.98949.08152,7.48622,1.797,10.03712,6.45052,5.99592,10.93874,13.277,21.17343,20.0507,31.68473.99755,1.548,2.06468,3.05117,3.42494,5.0541-35.36459-3.51727-69.67751-6.92991-103.99043-10.34255,9.14941-3.74789,11.48256-11.38384,12.4578-19.76459.99743-8.57087,1.99448-17.15541,2.515-25.76281.31065-5.13511,2.28164-8.37379,6.59143-11.42521a86.494,86.494,0,0,0,16.13977-14.6547c5.385-6.39982,4.37236-13.09563-2.891-17.27246a85.91471,85.91471,0,0,0-20.93181-8.05992c-14.444-3.79486-25.92553.248-34.27031,13.48108a93.79864,93.79864,0,0,1-15.7734,18.39215c-11.69268,10.80976-24.05568,20.892-36.05292,31.37619-4.20839,3.67756-7.02912,8.31192-3.96745,13.80763,3.04278,5.462,8.428,5.593,13.799,3.96858,7.7005-2.32886,15.33291-4.88337,21.29322-6.796q5.86107,11.05691,11.03312,20.81358c-12.996,2.46268-17.59634,6.898-19.19611,21.62q-4.70331,43.28378-8.70767,86.64249c-1.0946,11.69175,3.52037,18.30977,14.82959,21.48222,6.62156,1.85742,13.51419,2.7481,22.42727,4.49319-7.57823,3.43327-13.22275,6.61417-19.26029,8.60044-14.103,4.64007-28.43219,8.58839-42.5916,13.06407-5.513,1.74273-10.13124,4.83155-9.43751,11.6782.698,6.88878,5.73019,8.75888,11.62316,9.31034,30.98341,2.89995,61.55217-.29027,91.69218-7.27262,15.21287-3.52435,19.15162-14.63693,11.17713-28.07948-.60222-1.0152-1.09615-2.09463-1.90588-3.65594,17.57621,1.74807,34.32839,3.41413,51.28337,5.10044-13.48747,18.98972-11.04977,27.30026,10.6125,36.7812a262.27347,262.27347,0,0,0,78.31592,21.06185c6.80446.70977,14.02855,2.31221,17.054-6.51935,2.02349-5.907-1.43724-10.75807-10.45588-15.19833-1.86792-.91964-3.90464-1.52416-5.70111-2.55675-13.3219-7.65633-26.63746-15.32508-39.86244-23.14666-2.23473-1.3215-4.023-3.39761-7.73753-6.61479,6.7201.66851,10.85046,1.1438,14.99212,1.47967,15.84578,1.28533,23.7761-4.41243,25.76144-20.30064,3.17661-25.42159,5.48764-50.95129,8.15989-76.43588.31909-3.04372.608-6.09079.93958-9.42465,10.14616.26243,19.74831-.67994,24.74786-8.93818,5.70267-9.41955,9.9328-19.8881,13.60266-30.32285C1259.81357,193.36348,1256.53364,187.58,1250.93262,183.46827Zm-106.91369,137.1503q-40.54489-4.03047-81.08936-8.06514c-13.80229-1.37368-14.632-2.55426-11.6615-17.68438,36.168,3.59717,71.88621,7.1496,107.524,10.69408C1159.73723,320.46722,1158.1569,322.02381,1144.01893,320.61857Zm17.1241-36.453c-35.91941-3.57243-71.46212-7.10747-107.65408-10.707.50728-5.10069,1.00842-10.13963,1.57585-15.8446,35.56843,3.5374,71.27883,7.08921,107.65408,10.70688C1162.23029,273.23325,1161.73083,278.25529,1161.143,284.16553Zm4.07245-37.67524q-53.86541-5.35716-107.79828-10.72129c-.76817-13.89858.65932-15.32718,13.85559-14.01663q40.9995,4.07146,81.99776,8.15448C1167.42617,231.31557,1167.60355,231.55266,1165.21548,246.49029Z" style="fill:#fff"/><path d="M953.04206,159.78742c-1.9654-4.86386-6.06966-4.64318-10.16181-4.64318q-80.70846-.00037-161.417.00162c-11.031.00149-22.06717-.15123-33.09177.1291-13.57719.34519-20.091,6.56906-21.37815,20.04194-.44876,4.697-.76152,9.42676-.77556,14.14262-.07928,26.56478.03442,53.13042-.076,79.69507-.14594,35.12743-.89056,70.19361-12.20792,104.02889-1.39095,4.15844-.80109,8.10067,3.377,10.63058,4.21076,2.54954,8.01631,1.16542,10.88581-2.098,4.59006-5.2201,9.48336-10.39523,12.93216-16.35132,7.20981-12.4516,13.561-25.4001,20.18745-37.9972,1.23457,5.85135,6.118,6.42492,11.68255,6.37224,15.53246-.14712,31.06723-.0507,46.601-.05045h11.57526c0,9.12531-.12488,17.209.042,25.28665.12022,5.8194-2.91225,8.15112-8.26345,8.24257-4.95152.08462-9.90528.02858-14.85761.07729-5.561.05443-8.124,3.02856-8.2524,8.45717-.13587,5.74436,2.479,9.07052,8.32416,9.10481,15.30786.08984,30.63213.41826,45.92-.14948,10.86089-.40322,22.81116-5.03086,23.5902-21.65668.44839-9.56941.08133-19.17709.08133-29.36233,3.95025,0,6.37429.00012,8.79839,0,18.91081-.00137,37.82174.03877,56.73224-.02485,7.4836-.0251,10.77739-2.96221,10.6043-9.09636-.16415-5.82065-3.34058-8.48575-10.551-8.51185-16.88439-.06113-33.76917-.02038-50.65381-.02075q-6.949-.00018-13.898-.00012-.38731-.97257-.77451-1.94515c1.68029-1.18033,3.2147-2.70685,5.064-3.4857,13.44454-5.66173,27.06131-10.92682,40.39812-16.82712,7.54816-3.33945,10.36138-8.50153,8.74949-14.12225-2.00007-6.97489-7.6032-8.19983-13.82409-8.20082q-67.20072-.009-134.40157.01168c-7.56232.00521-10.70986,2.72151-10.7851,8.96253-.07325,6.08321,3.05049,8.64517,10.889,8.65735,24.53886.03877,49.078-.00273,73.61682.04821,2.31115.00485,4.62137.44336,6.932.68044q.34137,1.326.68287,2.65193c-3.334,1.34473-6.57093,3.07093-10.02358,3.94832-5.79015,1.4716-12.78075.87379-17.28029,4.00262-4.264,2.96507-5.97746,9.59812-9.664,16.12568h-63.8138c1.46948-16.39122,3.86537-33.321,4.31084-50.30191.73182-27.89671.192-55.82671.20285-83.74254.00373-9.54742.18242-9.71293,10-9.71418q56.3946-.00763,112.78926-.00223c17.33489-.00025,34.67016.0661,52.0045-.03256C951.84334,172.70423,955.86578,166.7751,953.04206,159.78742Z" style="fill:#fff"/><path d="M830.56945,184.64462c-11.25069-.00385-22.516-.15557-33.74779.353-9.80476.4441-15.06755,5.307-15.6512,15.04873-.81967,13.67989-.94368,27.41544-.93312,41.12689.01125,14.55008,5.8488,20.56109,20.46367,20.79942,18.67391.30431,37.35652.07381,56.0354.07381l.00012.11382c19.12957,0,38.26162.18291,57.38795-.06511,12.55225-.16278,17.85778-4.952,18.60868-17.3157.74928-12.33553.68423-24.72922.71268-37.09793.0389-16.9469-5.08932-22.56613-21.85922-22.79526C884.58477,184.51751,857.57553,184.65394,830.56945,184.64462Zm3.33125,17.86667q22.90989-.02592,45.81978-.00187c9.65316.00671,9.9233.30319,9.39048,10.37461H824.931C824.00188,203.24205,824.62162,202.52185,833.9007,202.51129Zm44.63963,41.88537q-21.57153.00577-43.14312-.00012c-11.0443-.00324-11.61657-.669-10.47817-12.66743h63.99584C890.09807,243.79463,889.58749,244.39355,878.54033,244.39666Z" style="fill:#fff"/><path d="M693.33876,363.334c-4.194-.05-8.389-.00895-13.15092-.00895,0-10.31049-.03051-19.72508.00826-29.13954.04256-10.31707-.0735-20.5289-13.28872-24.65765,2.47635-1.35429,3.63842-1.97807,4.78967-2.62123,16.72516-9.3455,17.282-22.07456,1.39773-32.24737a38.34876,38.34876,0,0,0-5.24515-3.0508c-11.47771-4.98974-22.99594-9.88652-36.13766-15.51532,5.69825,0,10.1633.00336,14.62842-.00062,15.08674-.01392,30.17765.17371,45.25868-.12674,8.276-.16489,12.796-7.1071,8.304-12.8737-1.89849-2.437-6.477-3.85476-9.86018-3.89663-25.441-.31562-50.88779-.17235-76.33281-.1726h-7.31852V222.773h7.90881c20.94163-.001,41.88674.183,62.821-.2095,3.01943-.05654,7.20912-2.18447,8.61716-4.63883,1.27663-2.22535.59607-7.3007-1.2224-9.12544-2.14365-2.15079-6.43-2.92492-9.80376-2.9668-20.48815-.25373-40.981-.11444-61.47221-.14923-2.38011-.004-4.75986-.27188-6.98378-.40782-1.816-13.76165-5.46458-17.03438-19.471-18.15718-17.46618-1.4-22.83689,2.09649-27.67459,18.58438-2.21367,0-4.64933-.00049-7.085,0-20.2661.00435-40.53276-.079-60.79792.05878-7.50815.05107-10.77361,2.78874-10.84549,8.25624-.078,5.93944,3.33485,8.72532,10.98708,8.74148q28.7102.06,57.42057.01392H559.4008v16.2498h-7.859q-37.49232.00037-74.98453.00895c-8.17815.00783-11.25542,2.24622-11.43932,8.14342-.19583,6.28128,2.86888,8.81019,11.46075,8.87878,14.86091.11854,29.72337.037,44.58514.03927,2.34626.00037,4.69245,0,8.06794,0-2.73618,6.34005-4.59031,11.64714-7.31511,16.46129-1.11746,1.97447-4.06712,3.99467-6.26432,4.088-9.66372.41067-19.3587-.00485-29.03895.12836-9.82961.13544-13.85267,4.46834-13.65877,14.23309.2064,10.396,5.87657,15.714,17.18387,14.9933,16.611-1.05893,33.20341-2.509,49.77039-4.13334,31.33382-3.07242,62.64192-6.40628,93.97-9.5381,1.393-.13929,3.35156.1767,4.24138,1.0767,4.66343,4.71724,9.067,9.69144,14.51671,15.61522-3.70042,0-6.08936-.00174-8.4783.00025-45.03533.03591-90.07165-.08549-135.10562.18552-18.24633.10984-23.45488,5.89508-23.47066,24.24474-.00839,9.813-.00143,19.62579-.00143,29.89776-5.62687,0-10.33578-.24193-15.01027.056-7.24347.4615-11.24237,8.16231-6.60056,13.60894,2.03666,2.38974,6.59721,3.66526,10.01991,3.681,49.53828.22851,99.07793.15694,148.61727.15681,23.64376,0,47.28764.03268,70.93128-.02125,7.29492-.01665,10.45643-2.67479,10.52875-8.47059C704.14411,366.21679,700.85349,363.42345,693.33876,363.334Zm-125.638-88.7365c8.59578-14.63656,27.43017-21.731,49.82147-17.57478-6.67375,6.29445-2.58626,11.29139,3.3233,17.57478ZM538.086,362.97289h-8.292c0-10.8028-.306-21.53652.29915-32.21879.1017-1.79492,4.145-3.36667,6.36708-5.04142q.81283,1.05365,1.62574,2.10742Zm49.25441-.08524h-8.2783V327.03889h8.2783Zm49.29044.1132h-8.84529V327.57494c8.08042-1.22308,8.78236-.74841,8.82951,6.36813C636.67859,343.52541,636.63087,353.10824,636.63087,363.00085Z" style="fill:#fff"/><path d="M533.07771,145.80819c-14.3937.35786-18.58525,4.437-21.22084,21.39461-13.42075,0-26.44965.01914-39.47842-.00919-5.20352-.01143-8.74962,1.759-8.96707,7.62762-.22329,6.02816,2.35526,8.72992,9.13177,8.78819,13.19628.11383,26.39429.03343,39.43909.03343,2.46362,15.67014,5.70528,18.56959,21.27247,19.76645,15.61765,1.20059,21.1228-2.83185,26.45375-19.49644h46.9578c5.29808,17.07141,8.0798,19.33926,23.79405,19.59138,14.63438.23485,18.47584-2.823,24.63882-19.866,12.911,0,25.95392.10152,38.99425-.04324,6.411-.07108,9.68454-4.00734,8.69693-9.9525-.89572-5.392-4.71854-6.49786-9.43925-6.47649-12.964.0589-25.92857.02038-38.726.02038-2.72705-17.44766-3.80934-19.25115-19.28191-20.99-6.78807-.76282-15.12371.10575-20.61073,3.60164-4.70214,2.99588-6.34484,10.79373-9.6,16.9592H559.441C555.42042,148.36916,551.55554,145.3488,533.07771,145.80819Z" style="fill:#fff"/><path d="M330.12391,180.1513c-7.96293-8.415-17.55514-15.301-26.54371-22.7202-1.4975-1.236-3.64239-2.438-5.44936-2.38279-3.15412.09618-7.13631.26393-9.1437,2.14173-1.61164,1.50775-1.47912,5.72124-.93188,8.5.83843,4.25747,2.69877,8.31365,4.51574,13.58868H266.38746c4.00212-5.07485,7.91578-9.7133,11.46075-14.61829,4.07749-5.64159,3.51124-11.3611-2.837-14.012a66.89242,66.89242,0,0,0-22.5263-5.0131c-8.7864-.37141-12.04353,3.25633-14.55952,11.999-1.05458,3.66452-2.371,7.28405-3.05676,11.018-1.47874,8.052-3.90757,14.63246-14.28025,12.50714-1.1917-.24429-2.62751.48635-3.90334.90672-6.22958,2.05287-8.28085,6.34875-7.27329,14.67656.755,6.24077,3.80467,10.22836,10.41393,9.90218,8.51526-.42012,17.0998-.78755,25.48621-2.18646,17.20821-2.87062,34.30441-6.41286,51.31859-9.65415,2.161,5.2293,4.28855,10.37784,6.463,15.63994-9.12015,0-18.34214-.02621-27.56387.00647-12.60164.04448-25.21123-.121-37.80236.27784-11.91181.3775-18.4554,6.29408-18.53586,16.9638-.21385,28.35322-.10605,56.70919-.03566,85.06378.01789,7.21744,3.91272,12.18829,10.68656,13.75991a47.86288,47.86288,0,0,0,16.63687,1.04825c11.52823-1.49881,15.77241-7.01938,15.85113-18.7274.04318-6.42853.0077-12.85755.0077-19.37455h23.54709c2.70573,16.19986,2.01218,17.24115-13.20168,18.33922-5.69956.41142-7.8908,3.462-7.88186,8.78522.009,5.37021,2.48394,8.731,7.9804,8.78819,12.59927.131,25.23216.49468,37.79471-.22528,14.291-.819,19.28178-6.79571,19.31254-21.3213q.073-34.43184-.01181-68.86368c-.02535-9.69988-.64179-19.22009-12.23793-23.82139,2.71885-1.07757,4.41355-1.6678,6.04041-2.40689C338.01682,202.22164,340.90174,191.541,330.12391,180.1513Zm-43.80417,90.77994h-23.7236V259.64631h23.7236ZM261.378,241.35369c1.20444-4.65237,1.5-11.6756,3.42954-12.15747a40.15026,40.15026,0,0,1,19.05072-.03007c2.07574.52909,2.52618,7.43477,3.94634,12.18754Z" style="fill:#fff"/><path d="M417.71748,325.38215c20.478-.29251,31.93709-12.76709,31.12053-33.27512-.34886-8.76086-4.85162-14.93975-13.36968-16.16519-19.25712-2.77047-24.24014,1.81306-25.58791,18.1204-.0927,1.12156.23025,2.45883-.27169,3.33337-1.89793,3.306-3.63264,8.7416-6.20225,9.21962-6.10688,1.13572-12.66352-.00211-19.01245-.53245-.64621-.05393-1.57473-2.2123-1.59418-3.4068-.138-8.49855-.0735-17.00045-.0735-24.69927,17.50544-3.71609,34.24272-6.9908,50.83268-10.8919,10.47309-2.46269,13.10892-10.56063,6.98577-19.45531-5.37606-7.80941-14.5146-9.88515-23.94739-5.413-10.90147,5.16842-21.79324,10.35746-33.94487,16.1345,0-3.36741.01435-4.701-.00224-6.03413-.15364-12.347-4.9248-17.71209-17.06563-18.91826a52.88494,52.88494,0,0,0-9.41725-.10985c-12.93515,1.04017-17.90879,6.44455-17.96029,19.49135-.064,16.21153-.034,32.42357-.01106,48.63535.02466,17.35248,6.00878,23.68334,23.45756,23.94142Q389.68043,325.77164,417.71748,325.38215Z" style="fill:#fff"/><path d="M386.98768,184.9298c15.852-3.09255,31.81284-5.7333,47.50845-9.48318,9.687-2.31432,11.83869-9.9525,6.28115-18.2126-5.39556-8.01916-14.34436-10.23046-23.796-5.84115-10.95427,5.0874-21.89463,10.20462-33.63061,15.677-2.245-16.04715-5.83221-20.20348-17.51651-21.185a71.47192,71.47192,0,0,0-9.447-.06225c-12.16064.59508-18.08132,6.63417-18.16874,18.7115-.10419,14.40593-.0812,28.81323-.00963,43.21954.07251,14.59605,6.22524,21.38815,20.68709,21.6558q30.37772.56216,60.7722.041c16.32759-.28381,26.33557-9.63341,28.68655-25.71161,1.11646-7.63558-2.05661-13.72015-8.97446-17.20946-14.38419-7.25522-25.86837-1.7805-29.45168,14.04012-2.264,9.99624-15.88218,15.95283-24.56631,10.60846a5.50193,5.50193,0,0,1-2.47064-3.70825c-.23541-7.32816-.11419-14.66763-.11419-21.99591C384.7801,185.21969,385.89712,185.14253,386.98768,184.9298Z" style="fill:#fff"/><path d="M405.50968,374.13754c2.76594,7.19134,7.69335,10.66264,16.205,12.2319,6.92494-3.32616,14.35294-5.91546,20.62527-10.19754,5.62538-3.84034,6.23686-10.84021,2.06717-16.21825-11.12476-14.34914-25.99113-23.995-42.34793-31.26995-2.39353-1.0644-7.2695.01168-9.0118,1.9147-1.66382,1.81729-1.73446,6.35633-.77537,9.09263C396.339,351.29406,401.09334,362.65479,405.50968,374.13754Z" style="fill:#fff"/><path d="M262.14788,327.87279c-2.96463-1.06415-8.165.38458-10.75149,2.62906-11.01634,9.55923-21.46681,19.775-32.03526,29.84421-3.90458,3.72006-6.7867,7.95529-4.34856,13.7496,3.55821,8.45618,11.18652,10.61281,19.10751,11.71449,6.941.96524,14.141.05766,18.08356-6.38566a116.43194,116.43194,0,0,0,15.7944-42.53686C266.10353,333.72786,264.83087,328.83567,262.14788,327.87279Z" style="fill:#fff"/><path d="M353.39216,331.42534c-3.601-3.36268-8.88729-5.97075-12.60424-2.0448-2.39211,2.52643-2.65522,8.17672-2.09128,12.17562,1.40618,9.97126,4.00437,19.76757,5.79736,29.69286,1.87382,10.37287,5.36393,13.583,15.70673,13.96046,3.93161-.85266,7.97666-1.36212,11.77451-2.61887,14.37493-4.757,17.58894-13.8628,7.83594-25.29386C371.84116,347.95536,362.40471,339.84114,353.39216,331.42534Z" style="fill:#fff"/><path d="M298.78139,330.44842c-2.06263-1.98391-7.02179-2.71244-9.771-1.68321-2.29394.85888-4.3895,5.02329-4.69866,7.92349-1.28278,12.033-1.84182,24.14259-2.69361,36.22215-.40937,5.80512,2.16949,9.47945,7.81655,10.79684,3.02955.70679,6.14012,1.06651,9.39676,1.61363,3.92253-.60291,7.97828-.87876,11.84179-1.88923,9.075-2.37384,13.41739-9.47958,10.70625-18.51467C317.289,351.28561,308.86921,340.15092,298.78139,330.44842Z" style="fill:#fff"/><path d="M967.33293,129.7557c17.07831.06834,31.41142-14.06136,31.48859-31.04181.08033-17.69705-13.7263-31.95089-30.90743-32.16238-19.98043-.24591-31.3952,16.63153-31.76015,30.777C935.69331,115.18189,950.62175,130.01143,967.33293,129.7557Zm.75674-59.08924a27.31958,27.31958,0,0,1,26.67685,27.82339c-.08207,15.29513-12.33485,27.24819-27.8552,27.17364-14.47763-.06946-26.69617-12.88625-26.73451-27.7456C940.14525,85.68238,950.49886,70.395,968.08967,70.66646Z" style="fill:#fff"/><path d="M961.577,100.14237c1.87438,0,3.53255.063,5.18314-.02262a1.88558,1.88558,0,0,1,2.07239,1.31429c1.96583,4.30071,3.998,8.57124,6.0601,12.8261.2341.48287.79134,1.114,1.22773,1.138,2.14558.11754,4.301.05343,6.74688.05343-2.69716-5.58-5.26453-10.89153-7.881-16.30449.8403-.27809,1.55361-.46286,2.22616-.74592a8.79865,8.79865,0,0,0,5.0892-4.87094c2.43119-6.04805-.40328-11.55979-6.93289-13.055a38.64729,38.64729,0,0,0-7.50547-.775c-4.28233-.12065-8.5705-.03317-12.91222-.03317v35.68784h6.626Zm.04486-16.14494c3.84121-.02162,7.66583-.52648,11.34594.89268,2.30829.89031,3.41338,2.86963,3.29428,5.51684-.11755,2.61278-1.23432,4.39639-3.83276,4.83639-3.47328.588-7.03006.67473-10.80746.99867Z" style="fill:#fff"/></svg>