<svg id="圖層_1" data-name="圖層 1" xmlns="http://www.w3.org/2000/svg" xmlns:xlink="http://www.w3.org/1999/xlink" viewBox="0 0 1321.82609 493.04348"><defs><linearGradient id="未命名漸層_35" x1="147.07093" y1="450.84216" x2="411.7984" y2="-7.67926" gradientUnits="userSpaceOnUse"><stop offset="0" stop-color="#000072"/><stop offset="0.10794" stop-color="#000474"/><stop offset="0.2073" stop-color="#000f7b"/><stop offset="0.30331" stop-color="#012187"/><stop offset="0.39723" stop-color="#023c97"/><stop offset="0.48887" stop-color="#035dab"/><stop offset="0.50279" stop-color="#0363af"/><stop offset="1" stop-color="#000173"/></linearGradient><linearGradient id="未命名漸層_8" x1="946.50524" y1="245.40421" x2="1236.39434" y2="245.40421" gradientUnits="userSpaceOnUse"><stop offset="0" stop-color="#f7cf6f"/><stop offset="0.37784" stop-color="#d6a425"/><stop offset="0.752" stop-color="#f9db93"/><stop offset="1" stop-color="#d6a425"/></linearGradient></defs><path d="M515.27805,157.84167c14.94045-25.539,25.24972-72.30346-18.25116-113.16674-28.79553-27.04634-62.87119-31.07053-95.9702-11.3215a113.786,113.786,0,0,0-16.962,12.48751c-18.60214-8.47988-57.29444-19.44335-124.43153-11.06077-67.14737,8.39454-101.9496,28.5536-117.88886,41.3468-13.09182-6.72845-34.97984-14.92614-58.35387-10.5701-20.79168,3.87017-38.0749,16.39548-51.37164,37.2253C-.05744,153.0898,21.44537,195.8847,42.2102,216.96327,20.90044,339.847,70.52188,402.29377,117.476,433.32157l1.85109,1.21825c22.39983,14.44262,49.19843,25.4062,79.64327,32.58249A326.56642,326.56642,0,0,0,424.90339,438.8934c49.46865-25.78067,83.76242-59.4558,101.92589-100.08677C549.86553,287.28075,545.97388,226.44329,515.27805,157.84167Z" style="fill:url(#未命名漸層_35)"/><path d="M1247.47221,175.7488a28.47748,28.47748,0,0,0,5.27827-15.06056c.74787-10.10422-2.82971-16.50362-5.96253-20.09291a23.82366,23.82366,0,0,0-8.67726-6.24615,26.06478,26.06478,0,0,0-1.13363-7.96542c-4.05624-13.30268-17.56981-18.82224-22.01057-20.63608-11.55268-4.71876-23.65045-7.21551-32.89937-8.86339a25.59848,25.59848,0,0,0-4.47532-.38441,31.7121,31.7121,0,0,0-16.951,5.02346,37.20222,37.20222,0,0,0-18.12807-7.97994A93.76345,93.76345,0,0,0,1127.4996,92.332a88.80934,88.80934,0,0,0-11.98213.80046c-10.47669,1.43124-18.6324,7.146-23.15468,15.50983a28.60988,28.60988,0,0,0-12.939-14.66388c-6.80318-3.91233-14.62672-6.95744-24.62126-9.58322a54.59131,54.59131,0,0,0-13.8239-1.88051c-10.96086,0-26.46934,3.87338-38.10591,22.32607a75.6886,75.6886,0,0,1-12.72246,14.73313c-7.169,6.62764-14.85687,13.18366-22.29161,19.524-4.19146,3.57431-8.52559,7.27046-12.78079,10.9889-13.14065,11.48377-12.47812,25.16894-7.47662,34.147A25.35,25.35,0,0,0,970.322,197.54712a32.385,32.385,0,0,0,5.84531-.55375,52.66455,52.66455,0,0,0-4.11265,16.27493c-2.85752,26.2974-5.6638,54.21982-8.5793,85.36277-1.00832,10.77147,1.39554,19.76818,6.92366,26.57169q-.60162.17953-1.20142.35863c-6.006,1.79245-12.21645,3.64592-18.3571,5.587-21.32845,6.74193-21.302,23.88431-20.78584,28.97769.5166,5.09968,3.94668,21.90281,26.38985,24.00344,7.95719.74473,16.12844,1.12238,24.2864,1.12238,22.78637,0,46.03855-2.8207,71.08522-8.6231,12.24223-2.83612,21.25548-9.7126,25.3795-19.36271a29.83617,29.83617,0,0,0,2.27549-9.08622l3.58783.35694a28.56749,28.56749,0,0,0,.72716,11.63273c3.72632,13.4467,16.01258,20.41708,27.53958,25.46215a275.558,275.558,0,0,0,81.87167,21.99447c.4701.04909.94245.10314,1.41525.15707a61.06893,61.06893,0,0,0,7.11383.51041c12.34,0,21.69034-6.63541,25.6538-18.20475,1.78986-5.225,5.73428-23.20433-18.6449-35.2074-1.312-.64587-2.5106-1.13218-3.47388-1.52289-.4344-.17633-1.02239-.41482-1.25569-.52741q-5.04345-2.89862-10.03126-5.77156c6.24166-5.866,10.19869-14.444,11.57543-25.46237,2.2264-17.81719,4.04475-35.88637,5.80319-53.36048q.88012-8.746,1.77556-17.49009c7.91182-1.61927,17.29856-5.65907,23.40059-15.73851,6.89326-11.38615,11.54255-23.552,14.82276-32.87888A28.521,28.521,0,0,0,1247.47221,175.7488Zm-182.28306,6.06071c.23218-1.42876.37529-2.6518.48417-3.58828a44.26473,44.26473,0,0,0,5.23367.49971c3.59763.13771,7.1948.29659,10.79186.45535,6.86691.303,13.9366.61512,21.02308.77907q1.70688,3.0121,3.49628,5.93482Z" style="fill:#000072"/><path d="M949.87991,175.3904c4.70019-7.01182,5.44637-15.8573,2.04737-24.26827-4.00725-9.91685-12.20811-14.94526-24.37467-14.94526l-.53721.00079-.46469.00067-46.06828-.00112-49.48125-.00113-63.0269.00383h-.15922q-4.15842,0-8.318-.0197-4.21821-.01487-8.43585-.01982c-6.40694,0-11.3464.05292-16.01573.17171-16.06043.40839-27.65962,7.55984-33.37217,20.094-4.12345-4.87809-10.63478-8.41806-20.12725-8.41806l-.21168.00045q-8.2302.03749-16.4596.032l-8.03995-.0045a28.95769,28.95769,0,0,0-5.857-10.56351c-7.13613-7.98737-17.284-9.12776-24.69378-9.96054a57.65267,57.65267,0,0,0-6.41212-.35536c-6.65208,0-16.32166,1.10864-24.61136,6.39028-5.8122,3.703-9.0673,9.14736-11.331,14.05991H562.24828c-5.34278-13.22781-14.69247-20.6219-35.173-20.6219q-1.677,0-3.52274.047c-8.04615.2-18.28391,1.43394-26.09675,9.2657a32.627,32.627,0,0,0-7.34343,11.75063l-9.31468.00259c-5.49524,0-10.96142-.00349-16.42637-.01531a27.71679,27.71679,0,0,0-14.02387,3.533,37.18924,37.18924,0,0,0-3.28145-5.98223,33.4287,33.4287,0,0,0-27.98581-15.25333,38.2225,38.2225,0,0,0-16.16008,3.72486c-5.27523,2.44991-10.54651,4.90658-15.90854,7.40806-4.58736-7.63123-12.32454-13.16058-25.95454-14.30548-1.94221-.16316-3.94161-.24254-6.11262-.24254-1.64978,0-3.4062.04673-5.36946.14289-16.27843.79663-27.47169,8.89018-31.71968,22.23407q-.96727-.77151-1.9314-1.5391c-2.38043-1.894-4.629-3.68308-6.84506-5.51224-2.77859-2.2934-8.52672-6.1411-15.804-6.1411q-.31061,0-.61884.00923a44.2932,44.2932,0,0,0-9.00909.98692,27.55266,27.55266,0,0,0-6.80509-4.03461,81.98324,81.98324,0,0,0-27.82637-6.19211c-.63944-.02714-1.25851-.04009-1.86181-.04009-14.75869,0-24.54875,8.01575-29.09817,23.82464-.27226.94605-.56547,1.88872-.85766,2.83184-.76612,2.47277-1.62175,5.23458-2.26243,8.28a23.982,23.982,0,0,0-6.74226,1.61972l-.30931.11429c-6.39051,2.10536-21.10877,9.49945-18.36712,32.15971,1.029,8.50375,4.83575,15.27776,10.545,19.50132a38.0655,38.0655,0,0,0-1.05741,8.78367c-.18871,25.02977-.12228,50.43731-.05787,75.00836l.0224,8.72376c.02815,11.31375,5.45628,20.78651,14.37687,26.06692-1.17215,1.1199-2.35285,2.245-3.51408,3.35632q-2.75352,2.63547-5.51066,5.26644c-13.39963,12.76626-10.84061,25.50865-8.1226,31.96784,7.63933,18.15521,25.183,20.5951,31.78734,21.51356a48.51385,48.51385,0,0,0,6.65039.47911c12.04135,0,21.83052-5.16071,27.56435-14.53158.33127-.54137.62673-1.0922.94932-1.63582,3.35632,6.60928,9.5169,11.44008,17.69164,13.347,2.67285.62357,5.14089.99875,7.52786,1.36165.89651.13624,1.80427.27361,2.725.42821a16.60658,16.60658,0,0,0,5.272.03682c1.05539-.16214,2.12214-.295,3.19126-.43a76.8972,76.8972,0,0,0,10.12189-1.77376,32.40831,32.40831,0,0,0,17.558-11.19462c5.17287,8.65846,13.76681,13.013,26.29,13.47023q.30283.011.606.011a16.6021,16.6021,0,0,0,3.5188-.3772c1.06416-.23083,2.13835-.43024,3.2122-.63179a75.07183,75.07183,0,0,0,10.05208-2.40453c7.70768-2.55069,13.00126-6.04967,16.65326-9.76406,5.30045,7.4353,13.21981,12.05746,23.98374,14.04188a16.60309,16.60309,0,0,0,10.1988-1.36164c1.80405-.86656,3.72463-1.70857,5.75793-2.5999a99.77672,99.77672,0,0,0,16.67691-8.67185c.26922-.18376.51074-.393.772-.58439,5.92435,5.72292,14.47674,7.88581,20.88279,7.91543,31.46633.145,63.04278.16462,89.78123.16462l28.15223-.00518,28.143-.0053,19.09.00485,19.10238.00484q15.76385,0,31.5277-.03063a33.00928,33.00928,0,0,0,11.35417-1.88726,26.47971,26.47971,0,0,0,3.36173,2.42041,24.89378,24.89378,0,0,0,12.859,3.6975c7.08828,0,13.80171-3.19531,18.90342-8.99727q.90832-1.03314,1.8286-2.06538c4.2258-4.7566,9.01528-10.14791,12.7756-16.642,4.40518-7.60792,8.4765-15.35783,12.4019-22.94919q1.86748.16485,3.93508.16766l.76093-.00372c5.72765-.05427,11.97076-.07949,19.647-.07949q5.77207,0,11.54413.01272c-12.713,1.38226-21.25583,10.84613-21.57538,24.34473-.22463,9.502,3.5599,15.44283,6.77424,18.75344,3.15466,3.24924,8.82184,7.13354,17.90457,7.18691q4.71222.02754,9.42581.07589c5.23457.04786,10.64739.09729,16.00841.09729,7.82512,0,14.30435-.10517,20.39062-.33115,23.1129-.85834,38.112-15.07036,39.14372-37.08993.20448-4.363.24851-8.71927.234-13.01657l7.83075.00293,14.99582.00551q12.43218,0,24.86673-.03547c8.58144-.02893,15.41175-2.60225,20.30121-7.64867,3.18067-3.28258,6.91736-9.13239,6.65714-18.3589-.3155-11.184-7.46-24.25668-26.52766-24.49392A25.81291,25.81291,0,0,0,932.047,270.523a28.5631,28.5631,0,0,0-4.73239-9.50542c3.38279-5.062,5.37341-11.48377,5.84047-19.17254.69011-11.36137.70723-22.70406.72389-33.67325l.00664-3.74a53.74818,53.74818,0,0,0-2.67611-17.98529A25.7612,25.7612,0,0,0,949.87991,175.3904ZM449.97805,343.81073a102.20833,102.20833,0,0,0-13.188-14.00192,41.60619,41.60619,0,0,0,8.8832-7.10843,42.73443,42.73443,0,0,0,9.431-15.79965,27.19175,27.19175,0,0,0,7.07319,6.18253,64.55247,64.55247,0,0,0-1.474,14.84787c-.00372,4.2982-.00439,8.596-.004,12.934a26.18784,26.18784,0,0,0-10.48559,3.28156C450.13062,344.0366,450.06284,343.92006,449.97805,343.81073Zm7.221-123.68464a23.71209,23.71209,0,0,0-8.57142,4.62553,46.64654,46.64654,0,0,0,6.9875-14.70881c-.00315.11834-.01722.23916-.0188.35716A26.57761,26.57761,0,0,0,457.19908,220.12609Zm-7.5926,44.95412c.2637-.47438.5086-.96136.74337-1.45488a24.192,24.192,0,0,0,4.08833,2.30128,25.51233,25.51233,0,0,0-1.99975,2.94782A30.55587,30.55587,0,0,0,449.60648,265.08021Zm-5.73237-34.48329c-.0554-.0617-.11316-.12037-.1689-.18162q.30638-.29388.607-.59418C444.15459,230.07863,444.0188,230.33806,443.87411,230.59692Zm238.473,77.72367c-.2807-.7302-.60138-1.48664-.96755-2.26,6.49477-7.40738,7.927-14.79,8.065-19.37881a30.1272,30.1272,0,0,0-5.94349-18.52127,27.5491,27.5491,0,0,0,13.53227-5.71345c-.00282.75475-.00394,1.51456-.0071,2.26784-.11507,27.68878-.739,53.13494-5.846,77.32563a32.24683,32.24683,0,0,0-6.10327-1.15717c-.00124-4.09711.00237-8.12125.019-12.14517C685.12008,322.89,685.15,315.61177,682.34712,308.32059ZM459.55058,196.96465a23.72583,23.72583,0,0,0-2.24205,4.4241,36.1426,36.1426,0,0,0,.19389-4.79826C458.1708,196.736,458.85213,196.86253,459.55058,196.96465Zm237.52393,28.11722a28.03739,28.03739,0,0,0-7.7695-4.29562c3.17718-7.35187,2.16042-17.12809-2.30466-23.89906a25.4948,25.4948,0,0,0,10.09566-3.97551q-.02837,14.90958-.02218,29.81959C697.07417,223.509,697.07428,224.30122,697.07451,225.08187Z" style="fill:#000072"/><path d="M1106.588,143.19591c-.59654-6.3801-1.31547-11.72173-1.548-17.08445-.3839-8.85952,4.01284-15.33837,12.72528-16.5287a75.62129,75.62129,0,0,1,22.08073.34845c9.87343,1.60672,15.77005,8.01478,16.70855,18.35254.06957.76689.10324,1.54107.23513,2.29766,2.90637,16.67234,4.8401,17.961,22.99437,14.65923-3.65128-5.586-7.70618-10.6371-10.39947-16.33211-1.67754-3.54693-3.02044-9.12438-1.34888-11.84989,1.632-2.66126,7.57119-4.46067,11.119-3.82852,10.01205,1.784,20.1563,4.05783,29.53381,7.88814,14.658,5.98712,16.26628,13.02318,7.23611,26.47773,3.99135.397,7.67675.87825,11.37783,1.10677,6.87216.42432,9.37446,4.21572,8.89,10.76-.48877,6.60334-3.91635,9.77784-10.47741,9.50738q-26.55645-1.09475-53.11006-2.26082c-1.19824-.05072-2.40054-.00343-4.50133-.00045,4.88182,9.99168,10.55247,18.33614,19.217,24.17,7.162,4.82217,10.5808,3.68474,14.62577-4.02262,6.57111-12.5207,15.82741-14.62114,27.23122-6.2495,5.50238,4.03939,8.72457,9.72111,6.51142,16.014-3.60523,10.251-7.76082,20.53515-13.3631,29.78889-4.91147,8.1127-14.34453,9.03859-24.312,8.78077-.32574,3.27516-.60954,6.26844-.923,9.25861-2.62523,25.03572-4.89555,50.11588-8.0162,75.08979-1.95036,15.60829-9.741,21.20576-25.30773,19.94309-4.06875-.33-8.12633-.797-14.72806-1.45357,3.64906,3.16044,5.40587,5.2,7.6012,6.49829,12.99207,7.6838,26.07312,15.21753,39.16041,22.739,1.76485,1.0143,3.7657,1.60821,5.6007,2.51162,8.85984,4.36209,12.25959,9.12775,10.27174,14.93074-2.97217,8.676-10.069,7.10166-16.75365,6.40456a257.65351,257.65351,0,0,1-76.93664-20.691c-21.28079-9.314-23.67554-17.47811-10.4256-36.13334l-50.38016-5.01065c.79545,1.53382,1.28065,2.59425,1.87229,3.59156,7.834,13.20586,3.96463,24.12269-10.98032,27.58489-29.60915,6.85939-59.63954,9.9934-90.07729,7.14461-5.78923-.54184-10.7328-2.37893-11.4185-9.14636-.6815-6.72606,3.85542-9.76053,9.27134-11.47252,13.91-4.3969,27.98679-8.27563,41.84146-12.83393,5.93126-1.95139,11.47635-5.07631,18.9211-8.44914-8.75611-1.71429-15.52736-2.58929-22.0323-4.414-11.11-3.11655-15.6437-9.618-14.56842-21.10382q3.98676-42.586,8.55433-85.11656c1.5716-14.4628,6.09092-18.82,18.85805-21.23927q-5.07109-9.5665-10.83881-20.447c-5.85538,1.8788-13.35332,4.38847-20.9182,6.67631-5.27647,1.59577-10.56683,1.4671-13.55607-3.89877-3.0077-5.399-.2367-9.9516,3.8976-13.56445,11.786-10.29958,23.93123-20.2042,35.418-30.82357a92.14463,92.14463,0,0,0,15.4956-18.06833c8.19783-12.9999,19.47712-16.97157,33.66676-13.24358a84.4024,84.4024,0,0,1,20.56319,7.918c7.13543,4.10326,8.13026,10.68116,2.84006,16.96826a84.969,84.969,0,0,1-15.85549,14.39658c-4.23391,2.99768-6.17017,6.17939-6.47535,11.224-.51137,8.45581-1.49087,16.88921-2.47072,25.30909-.95808,8.23322-3.2501,15.7347-12.23843,19.41648l102.159,10.1604c-1.33625-1.96765-2.38462-3.4444-3.36458-4.9651-6.65442-10.32623-13.80726-20.38066-19.6976-31.12661-2.50595-4.57157-4.95875-6.25688-9.86036-6.33706-11.55083-.189-23.09366-.84546-34.64076-1.28772-8.35613-.32-11.57907-3.127-11.50764-10.09315.0704-6.86935,3.59729-10.408,11.46693-10.28716C1083.03082,141.92654,1094.55119,142.67092,1106.588,143.19591Zm34.38156,136.33463,1.5481-15.56558-105.7581-10.51836-1.54811,15.56558Zm-107.93988,10.5151c-2.91813,14.86372-2.10306,16.02342,11.4561,17.37294q39.83035,3.96427,79.66127,7.923c13.889,1.3806,15.44147-.14852,14.513-14.79028Zm6.04081-58.05911L1144.97025,242.519c2.346-14.67459,2.17178-14.90745-11.73457-16.29147q-40.27656-4.00848-80.55362-8.01088C1039.71817,216.92921,1038.31582,218.33261,1039.07044,231.98653Z" style="fill:url(#未命名漸層_8)"/><path d="M849.704,285.08024c-2.27-.233-4.53948-.66374-6.80993-.66847-24.10668-.05017-48.21361-.0094-72.32034-.04732-7.7005-.01213-10.76924-2.52881-10.69722-8.505.07388-6.131,3.166-8.79953,10.5951-8.80477q66.01728-.0465,132.03458-.01133c6.11132.00082,11.61577,1.20424,13.58064,8.05634,1.58347,5.52176-1.18018,10.59288-8.59539,13.87345-13.10195,5.7964-26.47893,10.96885-39.68668,16.53085-1.81678.76506-3.32417,2.26475-4.97488,3.42434q.38047.95547.76087,1.91094,6.82667,0,13.65323,0c16.58726.00039,33.17467-.03966,49.76168.02031,7.08347.02562,10.204,2.64382,10.36519,8.362.17005,6.02609-3.06574,8.91146-10.41752,8.93617-18.57748.06244-37.15537.023-55.73309.02436-2.38144.00017-4.76279,0-8.64344,0,0,10.00593.36059,19.44436-.07988,28.84526-.76532,16.33293-12.50512,20.87908-23.17476,21.27523-15.01869.55766-30.07307.23513-45.11133.14681-5.74219-.0337-8.31105-3.30113-8.17754-8.9444.12614-5.333,2.644-8.2547,8.107-8.30831,4.86515-.04775,9.73163.00725,14.596-.07585,5.257-.08978,8.236-2.38052,8.11791-8.09745-.16393-7.93539-.04127-15.87667-.04127-24.84133-4.049,0-7.71014,0-11.37137,0-15.26027-.00022-30.52143-.09488-45.78033.0496-5.46658.05175-10.264-.51173-11.47684-6.26-6.50966,12.37522-12.74905,25.09582-19.83191,37.328-3.38806,5.85131-8.19516,10.93513-12.70438,16.06337-2.819,3.20593-6.55749,4.5657-10.6941,2.061-4.10453-2.48527-4.684-6.35823-3.31757-10.44335,11.11807-33.23935,11.84953-67.688,11.99293-102.19674.10843-26.09685-.00324-52.19457.07465-78.29163.01381-4.63279.32105-9.27912.76192-13.89349,1.26452-13.23563,7.66355-19.34977,21.00161-19.68892,10.83044-.27539,21.67223-.12538,32.509-.12687q79.28706-.01087,158.57418-.00159c4.02007,0,8.05205-.21669,9.98281,4.56141,2.774,6.86465-1.17759,12.68932-9.01593,12.73394-17.029.09694-34.059.03184-51.08858.032q-55.40142.00059-110.80289.00218c-9.64463.00128-9.82018.16395-9.82387,9.54317-.01069,27.42426.5197,54.86227-.19925,82.26769-.43762,16.68192-2.79135,33.31357-4.23491,49.416H814.058c3.62166-6.41266,5.30493-12.92888,9.49383-15.8417,4.42031-3.07372,11.28775-2.48652,16.976-3.93215,3.39186-.862,6.57179-2.55778,9.847-3.87876Q850.0394,286.38283,849.704,285.08024Z" style="fill:#fff"/><path d="M841.924,257.8011c-18.34992,0-36.70348.22649-55.04854-.07254-14.35747-.234-20.0922-6.13924-20.10322-20.433-.01037-13.46994.11143-26.96369.91665-40.40255.57337-9.57024,5.74349-14.34753,15.37556-14.78373,11.034-.49968,22.1009-.35071,33.15344-.34685,26.53049.00924,53.064-.12495,79.59034.2374,16.47456.225,21.51247,5.74535,21.47423,22.39386-.028,12.15094.036,24.32625-.7001,36.44461-.7377,12.14586-5.94979,16.85082-18.281,17.01075-18.78949.24368-37.58457.06382-56.37722.06382Zm31.61178-29.78347H810.66694c-1.11833,11.78717-.55615,12.44127,10.29366,12.44446q21.19164.00624,42.38333.00005C874.19649,240.45917,874.69811,239.87065,873.53575,228.01763Zm-62.857-18.51321H873.7284c.52342-9.894.258-10.1853-9.22511-10.19181q-22.5064-.01543-45.01286.00185C810.37477,199.32475,809.766,200.03226,810.67873,209.50442Z" style="fill:#fff"/><path d="M620.86259,251.95261c12.91027,5.52965,24.22561,10.34023,35.50122,15.24214a37.66872,37.66872,0,0,1,5.15274,2.99694c15.60449,9.99371,15.0575,22.49867-1.37308,31.67949-1.131.63191-2.27259,1.24461-4.70535,2.57507,12.98254,4.05606,13.09652,14.08813,13.05472,24.22345-.03812,9.24857-.0081,18.49744-.0081,28.62631,4.678,0,8.79918-.04022,12.91926.00883,7.3824.08786,10.61507,2.832,10.53973,8.86408-.07109,5.69368-3.17693,8.30511-10.34336,8.32145-23.22726.053-46.45468.02082-69.682.02084-48.66688.00008-97.33407.07046-145.99989-.15406-3.36239-.01552-7.84267-1.26853-9.84341-3.61617-4.56012-5.35079-.63159-12.91584,6.4843-13.36934,4.59213-.29264,9.21809-.055,14.74586-.055,0-10.0911-.00682-19.73117.00146-29.37122.01547-18.02648,5.13233-23.70985,23.05731-23.81774,44.24082-.26627,88.484-.147,132.72618-.18232,2.34684-.00186,4.69373-.00024,8.32895-.00024-5.35365-5.81941-9.67971-10.706-14.261-15.34017-.87412-.88419-2.7982-1.19459-4.16666-1.05778-30.77638,3.07666-61.53312,6.35191-92.31509,9.3701-16.27517,1.5958-32.57546,3.0204-48.89386,4.06053-11.10813.70805-16.67847-4.51631-16.88124-14.72915-.19046-9.5928,3.76172-13.84945,13.41821-13.98236,9.50977-.13089,19.034.27726,28.52753-.12618a8.85951,8.85951,0,0,0,6.154-4.01592c2.67685-4.72946,4.49833-9.943,7.18627-16.17141-3.316,0-5.62089.0003-7.92581,0-14.60006-.00222-29.20076.07787-43.79993-.03855-8.44056-.06731-11.45132-2.5518-11.25889-8.72236.18065-5.79341,3.20371-7.99241,11.23785-8q36.83193-.03469,73.66391-.00888c2.40837,0,4.8167,0,7.72059,0V219.21932c-3.4894,0-6.95661,0-10.42377,0q-28.20465-.00041-56.40927-.01371c-7.51749-.0157-10.87027-2.75268-10.79359-8.58742.07058-5.37121,3.27857-8.06072,10.65445-8.11086,19.90827-.13532,39.818-.05349,59.72717-.05768,2.39278-.00049,4.78556-.00007,6.96021-.00007,4.75254-16.19759,10.02862-19.63242,27.18721-18.257,13.75973,1.103,17.344,4.31806,19.128,17.83737,2.18478.13358,4.52259.39665,6.86081.40062,20.13028.03418,40.26226-.10266,60.38955.14662,3.31437.04105,7.52522.80152,9.6311,2.9145,1.78648,1.79255,2.455,6.77861,1.20088,8.96472-1.38324,2.41121-5.49911,4.50162-8.46541,4.55723-20.5656.38556-41.14182.20475-61.71463.2057-2.4189.00012-4.83781,0-7.76956,0V235.183c2.47655,0,4.83311,0,7.18967,0,24.99685.00021,49.99548-.14048,74.98848.16953,3.32361.04123,7.82145,1.43394,9.68647,3.82811,4.4129,5.665-.0275,12.48489-8.15772,12.64689-14.81548.29519-29.6406.11093-44.46166.12449C630.8469,251.956,626.4605,251.95261,620.86259,251.95261Zm-13.93981.9132c-21.997-4.083-40.49967,2.88651-48.94406,17.26526h52.20881C604.382,263.95841,600.36658,259.04935,606.92278,252.86581ZM569.14,321.64891v35.21741h8.13254V321.64891Zm47.86535.5266v34.802h8.68957c0-9.71832.04687-19.13251-.01551-28.546C625.633,321.44037,624.94346,320.97406,617.00532,322.17551Zm-88.11976.24081q-.79855-1.03515-1.59715-2.07029c-2.18292,1.64536-6.155,3.18935-6.25491,4.95273-.59451,10.494-.29388,21.03877-.29388,31.65121h8.14594Z" style="fill:#fff"/><path d="M503.11831,164.62788c2.58919-16.659,6.70692-20.66632,20.8471-21.0179,18.15241-.45133,21.94921,2.51586,25.899,20.58015H594.7511c3.19783-6.05694,4.8116-13.7175,9.431-16.66058,5.39039-3.43433,13.57919-4.28763,20.24775-3.5382,15.2,1.70825,16.26329,3.4799,18.94232,20.62028,12.57209,0,25.30826.03786,38.044-.02,4.63759-.02105,8.39307,1.06535,9.273,6.36244.97025,5.84049-2.24566,9.7074-8.54375,9.77727-12.81062.14213-25.62388.0425-38.30748.0425-6.05441,16.74271-9.82824,19.7468-24.20487,19.51608-15.43753-.24776-18.17023-2.47571-23.375-19.24644H550.12717c-5.237,16.37115-10.64529,20.33262-25.98787,19.15309-15.293-1.17571-18.47761-4.02419-20.89781-19.41831-12.81508,0-25.78062.079-38.74448-.03274-6.65716-.05736-9.19035-2.71145-8.971-8.6335.21363-5.76526,3.69723-7.50446,8.80915-7.49336C477.13451,164.64651,489.93391,164.62788,503.11831,164.62788Z" style="fill:#fff"/><path d="M281.12621,284.73427H257.99386c0,6.40222.03486,12.718-.00759,19.0333-.0773,11.50177-4.24674,16.92509-15.57193,18.39763a47.0204,47.0204,0,0,1-16.34388-1.02984c-6.65453-1.54391-10.48077-6.42731-10.49836-13.51752-.06913-27.85527-.175-55.71185.035-83.56566.079-10.48188,6.50743-16.29422,18.20945-16.665,12.36939-.392,24.75689-.22924,37.1366-.27306,9.05933-.03206,18.11886-.00629,27.07842-.00629-2.13617-5.16938-4.22628-10.22726-6.34919-15.36455-16.71455,3.18425-33.50964,6.66408-50.41478,9.48416-8.23871,1.37437-16.67206,1.73525-25.03737,2.148-6.49285.32038-9.48876-3.597-10.23051-9.72781-.98982-8.18112,1.02529-12.40143,7.14517-14.41815,1.2534-.413,2.66392-1.13069,3.83459-.89082,10.19,2.088,12.57609-4.3766,14.02878-12.28679.67366-3.66818,1.9669-7.224,3.0029-10.82391,2.4717-8.58877,5.6715-12.15266,14.30314-11.78778a65.71686,65.71686,0,0,1,22.12957,4.9248c6.23641,2.60425,6.79271,8.223,2.78706,13.76535-3.48254,4.81853-7.3273,9.37528-11.2589,14.36081h25.7224c-1.785-5.18209-3.61259-9.16694-4.43627-13.3495-.53758-2.72978-.66778-6.86912.91552-8.35022,1.972-1.84476,5.88407-2.00962,8.98262-2.10408,1.77514-.05413,3.8823,1.12665,5.35344,2.34093,8.83025,7.28847,18.2535,14.05323,26.07621,22.32,10.588,11.1891,7.75391,21.68171-6.33054,28.0817-1.59825.72624-3.26309,1.30592-5.93407,2.36458,11.3919,4.52035,11.99751,13.87288,12.02243,23.40178q.08844,33.8253.01162,67.651c-.03023,14.26978-4.93316,20.14124-18.97246,20.94577-12.34131.70726-24.75172.35-37.1291.22133-5.39966-.05612-7.831-3.35786-7.83983-8.63335-.0088-5.2295,2.14388-8.22647,7.743-8.63058C283.103,301.67182,283.7843,300.6488,281.12621,284.73427Zm1.88572-47.26148c-1.39513-4.66909-1.83765-11.45322-3.87686-11.973a39.44209,39.44209,0,0,0-18.71521.02966c-1.89546.4734-2.18592,7.37288-3.36912,11.94332Zm-24.76447,29.05653h23.30578v-11.086H258.24746Z" style="fill:#fff"/><path d="M376.18947,254.17073c11.93762-5.6753,22.63755-10.77294,33.347-15.85038,9.26667-4.39339,18.2443-2.35413,23.52567,5.31776,6.01528,8.738,3.4259,16.69328-6.86273,19.11261-16.29784,3.83237-32.74034,7.0495-49.93749,10.70015,0,7.56322-.06334,15.91534.07226,24.26422.01906,1.17344.93123,3.29387,1.566,3.34687,6.23713.52085,12.67829,1.63872,18.67765.523,2.52436-.46951,4.22849-5.80943,6.093-9.05731.49312-.859.17584-2.17273.26689-3.27468,1.324-16.02006,6.21935-20.52292,25.13731-17.80123,8.368,1.20392,12.7915,7.274,13.1342,15.88056.80221,20.14678-10.45515,32.40171-30.57245,32.68906q-27.53332.39328-55.07648-.02475c-17.14145-.25359-23.0202-6.47292-23.04441-23.51982-.02262-15.92625-.05205-31.85275.01085-47.77878.05062-12.817,4.93664-18.1262,17.644-19.14808a51.95192,51.95192,0,0,1,9.25138.108c11.927,1.18487,16.61413,6.45557,16.76507,18.585C376.20357,249.55261,376.18947,250.86269,376.18947,254.17073Z" style="fill:#fff"/><path d="M376.87524,164.49718c11.52933-5.376,22.277-10.40315,33.03838-15.40081,9.28522-4.31213,18.07636-2.13977,23.37691,5.73829,5.45966,8.11457,3.34589,15.6182-6.17052,17.89181-15.41918,3.68388-31.09891,6.278-46.67177,9.31616-1.07132.209-2.16865.28478-4.1362.53447,0,7.19906-.11907,14.40937.1122,21.60841a5.40534,5.40534,0,0,0,2.42707,3.643c8.53121,5.25011,21.90949-.60153,24.13372-10.42171,3.52017-15.54193,14.80211-20.92025,28.93293-13.79285,6.79608,3.42786,9.91322,9.4053,8.81642,16.9064-2.30958,15.795-12.14128,24.98-28.18132,25.25874q-29.8432.51849-59.70188-.04017c-14.20719-.26293-20.25155-6.93549-20.32277-21.27449-.0703-14.15253-.09293-28.30624.00947-42.45838.08584-11.86456,5.90226-17.79734,17.84875-18.382a70.20282,70.20282,0,0,1,9.2806.06123C371.14575,144.64952,374.66982,148.73267,376.87524,164.49718Z" style="fill:#fff"/><path d="M414.56368,379.93454c-8.36173-1.54157-13.20242-4.95182-15.91959-12.01651-4.33859-11.28044-9.00918-22.44107-13.00456-33.83982-.9422-2.68806-.87279-7.14712.76175-8.93249,1.71159-1.86947,6.50172-2.92664,8.85306-1.88088,16.06871,7.14676,30.67327,16.62266,41.60215,30.71907,4.0962,5.28339,3.49553,12.16-2.03076,15.93273C428.66382,374.12327,421.36669,376.667,414.56368,379.93454Z" style="fill:#fff"/><path d="M263.55424,331.3242A114.3821,114.3821,0,0,1,248.038,373.11193c-3.87311,6.32981-10.94637,7.22147-17.76509,6.27318-7.78151-1.0822-15.27542-3.20093-18.771-11.50819-2.39523-5.69231.43617-9.853,4.27194-13.50751,10.38234-9.89178,20.64877-19.92757,31.47112-29.31857,2.54094-2.20489,7.64972-3.62807,10.56213-2.58277C260.44282,323.414,261.69308,328.22016,263.55424,331.3242Z" style="fill:#fff"/><path d="M354.13308,378.79512c-10.16067-.371-13.58927-3.52448-15.43009-13.7146-1.76144-9.75065-4.31386-19.37434-5.69525-29.16993-.554-3.92857-.29555-9.47928,2.05443-11.96134,3.6515-3.85672,8.8447-1.29459,12.38224,2.00878,8.85382,8.26773,18.12411,16.239,25.95374,25.41583,9.58126,11.22977,6.42383,20.1752-7.69792,24.84839C361.96927,377.45688,357.99542,377.95747,354.13308,378.79512Z" style="fill:#fff"/><path d="M293.84456,378.90481c-3.19925-.53738-6.255-.89081-9.23128-1.58515-5.54759-1.29417-8.081-4.90381-7.67888-10.60658.8368-11.86688,1.386-23.76326,2.64618-35.58432.30372-2.84916,2.36237-6.94024,4.6159-7.78392,2.70083-1.01113,7.57266-.29539,9.599,1.65352,9.91014,9.53166,18.18162,20.47025,22.20007,33.862,2.6634,8.876-1.60254,15.85658-10.51771,18.1885C301.6823,378.04162,297.698,378.31267,293.84456,378.90481Z" style="fill:#fff"/><path d="M950.57273,127.84024c-16.41685.25125-31.08238-14.31719-30.6299-31.85614.35851-13.89635,11.57227-30.47657,31.20084-30.235,16.87854.20775,30.442,14.21059,30.36306,31.596C981.431,114.02646,967.35027,127.90738,950.57273,127.84024ZM977.52319,97.125a26.83845,26.83845,0,0,0-26.20707-27.33336c-17.281-.26675-27.45227,14.75145-27.42124,26.77139.03768,14.59774,12.041,27.18871,26.26368,27.257C965.40554,123.89329,977.44257,112.15079,977.52319,97.125Z" style="fill:#000072"/><path d="M958.09126,97.77058l7.74221,16.01734c-2.40285,0-4.52026.06309-6.628-.05249-.42875-.02351-.97618-.64346-1.20613-1.11791-2.02578-4.17992-4.02215-8.37515-5.95335-12.60019a1.85232,1.85232,0,0,0-2.03589-1.29116c-1.62152.08414-3.2505.02216-5.09186.02216v14.9446h-6.50929V78.63357c4.26528,0,8.47788-.08582,12.68481.03265a37.96345,37.96345,0,0,1,7.3733.76134c6.41458,1.46894,9.19916,6.88357,6.8108,12.8251a8.64385,8.64385,0,0,1-4.99959,4.78515C959.61753,97.31592,958.9168,97.49743,958.09126,97.77058Zm-13.129-2.85384c3.71088-.31828,7.205-.40341,10.61715-.98113,2.55268-.43221,3.64978-2.18442,3.76527-4.75122.117-2.60061-.96864-4.545-3.23631-5.41956-3.61524-1.39426-7.37252-.89821-11.14611-.877Z" style="fill:#000072"/></svg>