<svg data-name="圖層 1" xmlns="http://www.w3.org/2000/svg" viewBox="0 0 1321.826 493.043"><defs><linearGradient id="a" x1="147.071" y1="450.842" x2="411.798" y2="-7.679" gradientUnits="userSpaceOnUse"><stop offset="0" stop-color="#000072"/><stop offset=".108" stop-color="#000474"/><stop offset=".207" stop-color="#000f7b"/><stop offset=".303" stop-color="#012187"/><stop offset=".397" stop-color="#023c97"/><stop offset=".489" stop-color="#035dab"/><stop offset=".503" stop-color="#0363af"/><stop offset="1" stop-color="#000173"/></linearGradient><linearGradient id="b" x1="946.505" y1="245.404" x2="1236.394" y2="245.404" gradientUnits="userSpaceOnUse"><stop offset="0" stop-color="#f7cf6f"/><stop offset=".378" stop-color="#d6a425"/><stop offset=".752" stop-color="#f9db93"/><stop offset="1" stop-color="#d6a425"/></linearGradient></defs><path d="M515.278 157.842c14.94-25.54 25.25-72.304-18.251-113.167-28.796-27.046-62.871-31.07-95.97-11.322a113.786 113.786 0 00-16.962 12.488c-18.602-8.48-57.295-19.443-124.432-11.06-67.147 8.394-101.95 28.553-117.889 41.346-13.092-6.728-34.98-14.926-58.354-10.57-20.791 3.87-38.074 16.395-51.371 37.225C-.057 153.09 21.445 195.885 42.21 216.963c-21.31 122.884 28.312 185.33 75.266 216.359l1.851 1.218c22.4 14.442 49.199 25.406 79.643 32.582a326.566 326.566 0 00225.933-28.229c49.469-25.78 83.763-59.455 101.926-100.086 23.037-51.526 19.145-112.364-11.55-180.965z" fill="url(#a)"/><path d="M1247.472 175.749a28.477 28.477 0 005.278-15.06c.748-10.105-2.83-16.504-5.962-20.094a23.824 23.824 0 00-8.677-6.246 26.065 26.065 0 00-1.134-7.965c-4.056-13.303-17.57-18.822-22.01-20.636-11.553-4.72-23.651-7.216-32.9-8.864a25.598 25.598 0 00-4.475-.384 31.712 31.712 0 00-16.951 5.023 37.202 37.202 0 00-18.128-7.98 93.763 93.763 0 00-15.013-1.211 88.81 88.81 0 00-11.983.8c-10.476 1.432-18.632 7.146-23.154 15.51a28.61 28.61 0 00-12.94-14.664c-6.802-3.912-14.626-6.957-24.62-9.583a54.591 54.591 0 00-13.824-1.88c-10.961 0-26.47 3.873-38.106 22.326a75.689 75.689 0 01-12.723 14.733c-7.169 6.628-14.857 13.184-22.291 19.524-4.192 3.574-8.526 7.27-12.781 10.989-13.14 11.484-12.478 25.169-7.477 34.147a25.35 25.35 0 0022.721 13.313 32.385 32.385 0 005.845-.554 52.665 52.665 0 00-4.112 16.275c-2.858 26.298-5.664 54.22-8.58 85.363-1.008 10.772 1.396 19.768 6.924 26.572l-1.201.358c-6.006 1.793-12.217 3.646-18.357 5.587-21.329 6.742-21.302 23.885-20.786 28.978.516 5.1 3.946 21.903 26.39 24.004a261.723 261.723 0 0024.286 1.122c22.786 0 46.038-2.82 71.085-8.623 12.242-2.836 21.256-9.713 25.38-19.363a29.836 29.836 0 002.275-9.086l3.588.357a28.567 28.567 0 00.727 11.633c3.726 13.446 16.013 20.417 27.54 25.462a275.558 275.558 0 0081.871 21.994c.47.05.943.103 1.416.157a61.069 61.069 0 007.113.51c12.34 0 21.69-6.635 25.654-18.204 1.79-5.225 5.735-23.204-18.645-35.208-1.312-.645-2.51-1.132-3.474-1.522-.434-.177-1.022-.415-1.255-.528q-5.044-2.898-10.031-5.771c6.241-5.866 10.198-14.444 11.575-25.463 2.226-17.817 4.045-35.886 5.803-53.36q.88-8.746 1.776-17.49c7.912-1.62 17.298-5.66 23.4-15.739 6.894-11.386 11.543-23.552 14.823-32.879a28.521 28.521 0 00-3.88-26.38zm-182.283 6.06c.232-1.428.375-2.651.484-3.588a44.265 44.265 0 005.234.5c3.598.138 7.195.297 10.792.455 6.867.303 13.936.615 21.023.78q1.707 3.011 3.496 5.934z" fill="#000072"/><path d="M949.88 175.39c4.7-7.011 5.446-15.857 2.047-24.268-4.007-9.917-12.208-14.945-24.374-14.945h-.538l-.464.001h-46.069l-49.48-.002-63.028.004h-.159q-4.158 0-8.318-.02-4.218-.015-8.436-.02c-6.407 0-11.346.053-16.016.172-16.06.408-27.66 7.56-33.372 20.094-4.123-4.878-10.634-8.418-20.127-8.418h-.212q-8.23.038-16.46.032l-8.04-.004a28.958 28.958 0 00-5.856-10.564c-7.136-7.987-17.284-9.127-24.694-9.96a57.653 57.653 0 00-6.412-.355c-6.652 0-16.322 1.108-24.611 6.39-5.813 3.703-9.068 9.147-11.331 14.06h-21.682c-5.343-13.228-14.692-20.622-35.173-20.622q-1.677 0-3.522.047c-8.047.2-18.284 1.434-26.097 9.266a32.627 32.627 0 00-7.344 11.75l-9.314.003c-5.496 0-10.962-.004-16.427-.016a27.717 27.717 0 00-14.024 3.533 37.19 37.19 0 00-3.281-5.982 33.429 33.429 0 00-27.986-15.253 38.222 38.222 0 00-16.16 3.725 10155.48 10155.48 0 00-15.908 7.408c-4.588-7.631-12.325-13.16-25.955-14.306a72.46 72.46 0 00-6.113-.242c-1.65 0-3.406.047-5.37.143-16.277.796-27.47 8.89-31.719 22.234l-1.931-1.54c-2.38-1.893-4.63-3.682-6.845-5.512-2.779-2.293-8.527-6.14-15.804-6.14q-.31 0-.619.009a44.293 44.293 0 00-9.01.986 27.553 27.553 0 00-6.804-4.034 81.983 81.983 0 00-27.827-6.192 44.044 44.044 0 00-1.861-.04c-14.76 0-24.55 8.015-29.099 23.824-.272.946-.565 1.889-.857 2.832-.766 2.473-1.622 5.235-2.263 8.28a23.982 23.982 0 00-6.742 1.62l-.31.114c-6.39 2.106-21.108 9.5-18.366 32.16 1.029 8.504 4.835 15.278 10.545 19.501a38.066 38.066 0 00-1.058 8.784c-.188 25.03-.122 50.437-.058 75.008l.023 8.724c.028 11.314 5.456 20.787 14.377 26.067-1.173 1.12-2.353 2.245-3.514 3.356q-2.754 2.636-5.511 5.267c-13.4 12.766-10.84 25.508-8.123 31.968 7.64 18.155 25.183 20.595 31.788 21.513a48.514 48.514 0 006.65.48c12.041 0 21.83-5.162 27.564-14.532.332-.542.627-1.093.95-1.636 3.356 6.61 9.517 11.44 17.691 13.347 2.673.623 5.141.999 7.528 1.361.897.137 1.804.274 2.725.429a16.607 16.607 0 005.272.036c1.056-.162 2.122-.295 3.191-.43a76.897 76.897 0 0010.122-1.773 32.408 32.408 0 0017.558-11.195c5.173 8.659 13.767 13.013 26.29 13.47q.303.011.606.011a16.602 16.602 0 003.52-.377c1.063-.23 2.137-.43 3.211-.632a75.072 75.072 0 0010.052-2.404c7.708-2.55 13.002-6.05 16.654-9.764 5.3 7.435 13.22 12.057 23.983 14.042a16.603 16.603 0 0010.2-1.362c1.803-.867 3.724-1.709 5.757-2.6a99.777 99.777 0 0016.677-8.672c.27-.184.51-.393.772-.584 5.924 5.723 14.477 7.886 20.883 7.915 31.466.145 63.043.165 89.781.165l28.152-.005 28.143-.006 19.09.005 19.103.005q15.764 0 31.527-.03a33.01 33.01 0 0011.355-1.888 26.48 26.48 0 003.361 2.42 24.894 24.894 0 0012.86 3.698c7.088 0 13.801-3.195 18.903-8.997q.908-1.033 1.828-2.066c4.226-4.756 9.016-10.147 12.776-16.642 4.405-7.607 8.476-15.357 12.402-22.949q1.867.165 3.935.168l.76-.004c5.728-.054 11.972-.08 19.648-.08q5.772 0 11.544.013c-12.713 1.383-21.256 10.847-21.575 24.345-.225 9.502 3.56 15.443 6.774 18.754 3.154 3.249 8.822 7.133 17.904 7.187q4.713.027 9.426.075c5.235.048 10.648.098 16.009.098 7.825 0 14.304-.105 20.39-.331 23.113-.859 38.112-15.07 39.144-37.09.204-4.363.248-8.72.234-13.017l7.83.003 14.997.005q12.432 0 24.866-.035c8.582-.029 15.412-2.602 20.301-7.649 3.181-3.282 6.918-9.132 6.658-18.359-.316-11.184-7.46-24.256-26.528-24.493a25.813 25.813 0 004.607-23.737 28.563 28.563 0 00-4.732-9.505c3.382-5.062 5.373-11.484 5.84-19.173.69-11.361.707-22.704.724-33.673l.007-3.74a53.748 53.748 0 00-2.677-17.985 25.761 25.761 0 0018.67-11.057zM449.978 343.81a102.208 102.208 0 00-13.188-14.001 41.606 41.606 0 008.883-7.109 42.734 42.734 0 009.431-15.8 27.192 27.192 0 007.073 6.183 64.552 64.552 0 00-1.474 14.848c-.003 4.298-.004 8.596-.004 12.934a26.188 26.188 0 00-10.485 3.282c-.083-.11-.151-.227-.236-.336zm7.221-123.684a23.712 23.712 0 00-8.571 4.626 46.647 46.647 0 006.987-14.71c-.003.12-.017.24-.019.358a26.578 26.578 0 001.603 9.726zm-7.593 44.954c.264-.474.51-.961.744-1.455a24.192 24.192 0 004.088 2.302 25.512 25.512 0 00-2 2.947 30.556 30.556 0 00-2.832-3.794zm-5.732-34.483c-.055-.062-.113-.12-.169-.182q.307-.294.607-.594c-.157.258-.293.517-.438.776zm238.473 77.724c-.28-.73-.601-1.487-.967-2.26 6.494-7.408 7.927-14.79 8.065-19.38a30.127 30.127 0 00-5.944-18.52 27.55 27.55 0 0013.532-5.714l-.007 2.268c-.115 27.689-.739 53.135-5.846 77.326a32.247 32.247 0 00-6.103-1.158c-.001-4.097.002-8.12.019-12.145.024-5.848.054-13.126-2.749-20.417zM459.551 196.965a23.726 23.726 0 00-2.242 4.424 36.143 36.143 0 00.193-4.799c.669.146 1.35.273 2.049.375zm237.524 28.117a28.037 28.037 0 00-7.77-4.296c3.177-7.352 2.16-17.128-2.305-23.899a25.495 25.495 0 0010.096-3.975q-.028 14.91-.022 29.82v2.35z" fill="#000072"/><path d="M1106.588 143.196c-.597-6.38-1.315-11.722-1.548-17.085-.384-8.86 4.013-15.338 12.725-16.528a75.621 75.621 0 0122.081.348c9.873 1.607 15.77 8.015 16.709 18.353.07.767.103 1.54.235 2.297 2.906 16.673 4.84 17.961 22.994 14.66-3.651-5.586-7.706-10.637-10.4-16.332-1.677-3.547-3.02-9.125-1.348-11.85 1.632-2.662 7.57-4.461 11.119-3.829 10.012 1.784 20.156 4.058 29.534 7.888 14.658 5.987 16.266 13.023 7.236 26.478 3.991.397 7.676.878 11.377 1.107 6.873.424 9.375 4.215 8.89 10.76-.488 6.603-3.916 9.778-10.477 9.507q-26.556-1.095-53.11-2.26c-1.198-.051-2.4-.004-4.501-.001 4.881 9.992 10.552 18.336 19.217 24.17 7.162 4.822 10.58 3.685 14.625-4.023 6.572-12.52 15.828-14.62 27.232-6.25 5.502 4.04 8.724 9.722 6.511 16.015-3.605 10.25-7.76 20.535-13.363 29.789-4.912 8.112-14.345 9.038-24.312 8.78-.326 3.276-.61 6.269-.923 9.259-2.625 25.036-4.896 50.116-8.016 75.09-1.95 15.608-9.741 21.206-25.308 19.943-4.069-.33-8.126-.797-14.728-1.454 3.649 3.16 5.406 5.2 7.601 6.499 12.992 7.683 26.073 15.217 39.16 22.739 1.765 1.014 3.766 1.608 5.601 2.511 8.86 4.362 12.26 9.128 10.272 14.931-2.972 8.676-10.069 7.102-16.754 6.405a257.654 257.654 0 01-76.936-20.691c-21.281-9.314-23.676-17.479-10.426-36.134l-50.38-5.01c.795 1.533 1.28 2.594 1.872 3.591 7.834 13.206 3.965 24.123-10.98 27.585-29.61 6.86-59.64 9.993-90.077 7.145-5.79-.542-10.733-2.38-11.419-9.147-.681-6.726 3.856-9.76 9.272-11.472 13.91-4.397 27.986-8.276 41.841-12.834 5.931-1.952 11.476-5.077 18.921-8.45-8.756-1.714-15.527-2.589-22.032-4.413-11.11-3.117-15.644-9.618-14.569-21.104q3.987-42.586 8.555-85.117c1.571-14.463 6.09-18.82 18.858-21.239l-10.84-20.447c-5.854 1.879-13.352 4.388-20.917 6.676-5.277 1.596-10.567 1.467-13.556-3.898-3.008-5.4-.237-9.952 3.897-13.565 11.786-10.3 23.931-20.204 35.418-30.823a92.145 92.145 0 0015.496-18.069c8.198-13 19.477-16.971 33.667-13.243a84.402 84.402 0 0120.563 7.918c7.135 4.103 8.13 10.68 2.84 16.968a84.969 84.969 0 01-15.856 14.396c-4.234 2.998-6.17 6.18-6.475 11.224-.511 8.456-1.49 16.89-2.47 25.31-.959 8.233-3.25 15.734-12.24 19.416l102.16 10.16c-1.336-1.967-2.385-3.444-3.365-4.965-6.654-10.326-13.807-20.38-19.697-31.126-2.506-4.572-4.96-6.257-9.86-6.337-11.552-.19-23.094-.846-34.641-1.288-8.357-.32-11.58-3.127-11.508-10.093.07-6.87 3.597-10.408 11.467-10.287 11.529.177 23.05.92 35.086 1.446zm34.382 136.335l1.548-15.566-105.758-10.518-1.549 15.565zm-107.94 10.515c-2.918 14.863-2.103 16.023 11.456 17.373q39.83 3.964 79.661 7.923c13.89 1.38 15.442-.149 14.513-14.79zm6.04-58.06l105.9 10.533c2.346-14.675 2.172-14.907-11.734-16.291q-40.277-4.009-80.554-8.011c-12.964-1.288-14.366.116-13.612 13.77z" fill="url(#b)"/><path d="M849.704 285.08c-2.27-.233-4.54-.663-6.81-.668-24.107-.05-48.214-.01-72.32-.048-7.7-.012-10.77-2.528-10.697-8.505.073-6.13 3.166-8.8 10.595-8.804q66.017-.047 132.034-.012c6.112.001 11.616 1.205 13.58 8.057 1.584 5.521-1.18 10.593-8.595 13.873-13.102 5.797-26.478 10.969-39.686 16.531-1.817.765-3.324 2.265-4.975 3.424l.76 1.911h13.654c16.587 0 33.175-.04 49.762.02 7.083.026 10.204 2.644 10.365 8.363.17 6.026-3.066 8.911-10.418 8.936-18.577.062-37.155.023-55.733.024h-8.643c0 10.006.36 19.444-.08 28.845-.765 16.333-12.505 20.88-23.175 21.276-15.019.557-30.073.235-45.111.146-5.742-.033-8.311-3.3-8.178-8.944.126-5.333 2.644-8.255 8.107-8.308 4.865-.048 9.732.007 14.596-.076 5.257-.09 8.236-2.38 8.118-8.098-.164-7.935-.041-15.876-.041-24.84h-11.371c-15.26-.001-30.522-.096-45.78.049-5.467.051-10.265-.512-11.478-6.26-6.51 12.375-12.749 25.095-19.832 37.328-3.388 5.851-8.195 10.935-12.704 16.063-2.819 3.206-6.557 4.566-10.694 2.061-4.105-2.485-4.684-6.358-3.318-10.443 11.118-33.24 11.85-67.688 11.993-102.197.109-26.097-.003-52.195.075-78.292.014-4.632.321-9.279.762-13.893 1.264-13.236 7.663-19.35 21.002-19.69 10.83-.274 21.672-.124 32.509-.126q79.287-.01 158.574-.002c4.02 0 8.052-.216 9.983 4.562 2.774 6.865-1.178 12.69-9.016 12.734-17.03.097-34.06.032-51.089.032l-110.803.002c-9.645.001-9.82.164-9.824 9.543-.01 27.424.52 54.862-.199 82.268-.438 16.682-2.791 33.313-4.235 49.416h62.69c3.622-6.413 5.305-12.929 9.494-15.842 4.42-3.074 11.288-2.486 16.976-3.932 3.392-.862 6.572-2.558 9.847-3.879l-.671-2.605z" fill="#fff"/><path d="M841.924 257.801c-18.35 0-36.703.227-55.049-.072-14.357-.234-20.092-6.14-20.103-20.433-.01-13.47.112-26.964.917-40.403.573-9.57 5.743-14.348 15.375-14.784 11.034-.5 22.101-.35 33.154-.347 26.53.01 53.064-.125 79.59.238 16.475.225 21.513 5.745 21.474 22.394-.028 12.15.036 24.326-.7 36.444-.737 12.146-5.95 16.851-18.28 17.011-18.79.244-37.585.064-56.378.064zm31.612-29.783h-62.87c-1.117 11.787-.555 12.44 10.295 12.444q21.191.006 42.383 0c10.852-.003 11.354-.591 10.192-12.444zm-62.857-18.514h63.05c.523-9.894.257-10.185-9.226-10.191q-22.506-.016-45.013.001c-9.115.01-9.724.718-8.811 10.19zm-189.816 42.449c12.91 5.53 24.225 10.34 35.5 15.242a37.669 37.669 0 015.154 2.997c15.604 9.993 15.057 22.498-1.374 31.68-1.13.631-2.272 1.244-4.705 2.574 12.983 4.056 13.097 14.088 13.055 24.224-.038 9.248-.008 18.497-.008 28.626 4.678 0 8.799-.04 12.919.009 7.382.088 10.615 2.832 10.54 8.864-.071 5.694-3.177 8.305-10.344 8.321-23.227.053-46.454.021-69.682.021-48.667 0-97.334.07-146-.154-3.362-.015-7.842-1.268-9.843-3.616-4.56-5.35-.632-12.916 6.484-13.37 4.592-.292 9.218-.054 14.746-.054 0-10.091-.007-19.732.002-29.372.015-18.026 5.132-23.71 23.057-23.817 44.24-.267 88.484-.147 132.726-.183 2.347-.002 4.694 0 8.33 0-5.355-5.82-9.68-10.706-14.262-15.34-.874-.884-2.798-1.195-4.167-1.058-30.776 3.077-61.533 6.352-92.315 9.37-16.275 1.596-32.575 3.02-48.893 4.06-11.109.709-16.679-4.516-16.882-14.728-.19-9.593 3.762-13.85 13.418-13.983 9.51-.13 19.034.278 28.528-.126a8.86 8.86 0 006.154-4.016c2.677-4.73 4.498-9.943 7.186-16.171h-7.926c-14.6-.002-29.2.078-43.8-.039-8.44-.067-11.45-2.552-11.258-8.722.18-5.794 3.203-7.993 11.238-8q36.831-.035 73.663-.009h7.721v-15.964h-10.424q-28.204 0-56.409-.013c-7.518-.016-10.87-2.753-10.794-8.588.071-5.371 3.279-8.06 10.655-8.11 19.908-.136 39.818-.054 59.727-.058h6.96c4.753-16.198 10.029-19.633 27.187-18.257 13.76 1.103 17.344 4.318 19.128 17.837 2.185.134 4.523.397 6.861.4 20.13.035 40.262-.102 60.39.147 3.314.041 7.525.802 9.63 2.915 1.787 1.792 2.456 6.778 1.202 8.964-1.383 2.412-5.5 4.502-8.466 4.558-20.565.385-41.141.204-61.714.205h-7.77v15.964h7.19c24.997 0 49.995-.14 74.988.17 3.324.04 7.822 1.433 9.687 3.828 4.413 5.665-.028 12.485-8.158 12.647-14.815.295-29.64.11-44.462.124-4.386.004-8.772 0-14.37 0zm-13.94.913c-21.997-4.083-40.5 2.886-48.944 17.265h52.209c-5.806-6.173-9.821-11.082-3.265-17.265zm-37.783 68.783v35.217h8.133V321.65zm47.865.527v34.802h8.69c0-9.719.047-19.133-.016-28.546-.046-6.992-.736-7.458-8.674-6.256zm-88.12.24l-1.597-2.07c-2.182 1.645-6.155 3.19-6.254 4.953-.595 10.494-.294 21.039-.294 31.651h8.146z" fill="#fff"/><path d="M503.118 164.628c2.59-16.66 6.707-20.666 20.847-21.018 18.153-.451 21.95 2.516 25.9 20.58h44.886c3.198-6.057 4.812-13.717 9.431-16.66 5.39-3.435 13.58-4.288 20.248-3.539 15.2 1.709 16.263 3.48 18.942 20.62 12.572 0 25.308.038 38.044-.02 4.638-.02 8.393 1.066 9.273 6.363.97 5.84-2.245 9.707-8.544 9.777-12.81.142-25.623.043-38.307.043-6.054 16.743-9.828 19.747-24.205 19.516-15.437-.248-18.17-2.476-23.375-19.247h-46.13c-5.238 16.372-10.646 20.333-25.989 19.154-15.293-1.176-18.477-4.025-20.898-19.419-12.815 0-25.78.08-38.744-.032-6.657-.058-9.19-2.712-8.971-8.634.214-5.765 3.697-7.504 8.81-7.493 12.799.028 25.598.009 38.782.009zM281.126 284.734h-23.132c0 6.402.035 12.718-.008 19.034-.077 11.501-4.246 16.925-15.572 18.397a47.02 47.02 0 01-16.344-1.03c-6.654-1.544-10.48-6.427-10.498-13.517-.069-27.855-.175-55.712.035-83.566.08-10.482 6.508-16.294 18.21-16.665 12.369-.392 24.756-.23 37.136-.273 9.06-.032 18.119-.006 27.079-.006l-6.35-15.365c-16.714 3.185-33.51 6.664-50.414 9.484-8.24 1.375-16.672 1.736-25.038 2.148-6.493.32-9.489-3.597-10.23-9.727-.99-8.181 1.025-12.402 7.145-14.419 1.253-.413 2.664-1.13 3.834-.89 10.19 2.088 12.577-4.377 14.03-12.287.673-3.668 1.966-7.224 3.002-10.824 2.472-8.589 5.672-12.153 14.303-11.788a65.717 65.717 0 0122.13 4.925c6.236 2.604 6.793 8.223 2.787 13.765-3.483 4.819-7.327 9.376-11.259 14.361h25.722c-1.785-5.182-3.612-9.167-4.436-13.35-.537-2.73-.668-6.868.916-8.35 1.972-1.844 5.884-2.01 8.982-2.104 1.775-.054 3.883 1.127 5.354 2.341 8.83 7.289 18.253 14.054 26.076 22.32 10.588 11.19 7.754 21.682-6.33 28.082-1.599.726-3.264 1.306-5.935 2.365 11.392 4.52 11.998 13.872 12.023 23.401q.088 33.826.011 67.651c-.03 14.27-4.933 20.142-18.972 20.946-12.341.707-24.752.35-37.13.221-5.399-.056-7.83-3.357-7.839-8.633-.009-5.23 2.144-8.226 7.743-8.63 14.946-1.08 15.627-2.102 12.97-18.017zm1.886-47.261c-1.395-4.67-1.838-11.453-3.877-11.973a39.442 39.442 0 00-18.715.03c-1.896.473-2.186 7.372-3.37 11.943zm-24.765 29.056h23.306v-11.086h-23.306zM376.19 254.17c11.937-5.675 22.637-10.772 33.346-15.85 9.267-4.393 18.245-2.354 23.526 5.318 6.015 8.738 3.426 16.693-6.863 19.113-16.297 3.832-32.74 7.05-49.937 10.7 0 7.563-.063 15.915.072 24.264.02 1.174.931 3.294 1.566 3.347 6.237.52 12.678 1.639 18.678.523 2.524-.47 4.228-5.81 6.093-9.057.493-.86.176-2.173.267-3.275 1.324-16.02 6.22-20.523 25.137-17.801 8.368 1.204 12.792 7.274 13.134 15.88.802 20.147-10.455 32.402-30.572 32.69q-27.534.393-55.077-.025c-17.141-.254-23.02-6.473-23.044-23.52-.023-15.926-.052-31.853.01-47.779.051-12.817 4.937-18.126 17.645-19.148a51.952 51.952 0 019.251.108c11.927 1.185 16.614 6.456 16.765 18.585.017 1.31.002 2.62.002 5.928z" fill="#fff"/><path d="M376.875 164.497c11.53-5.376 22.277-10.403 33.039-15.4 9.285-4.313 18.076-2.14 23.377 5.738 5.46 8.114 3.345 15.618-6.171 17.891-15.42 3.684-31.099 6.278-46.672 9.317-1.071.209-2.168.284-4.136.534 0 7.2-.119 14.41.112 21.609a5.405 5.405 0 002.427 3.643c8.532 5.25 21.91-.602 24.134-10.422 3.52-15.542 14.802-20.92 28.933-13.793 6.796 3.428 9.913 9.405 8.816 16.906-2.31 15.795-12.14 24.98-28.18 25.26q-29.844.518-59.703-.041c-14.207-.263-20.251-6.936-20.323-21.275-.07-14.152-.093-28.306.01-42.458.086-11.865 5.902-17.797 17.849-18.382a70.203 70.203 0 019.28.061c11.479.965 15.003 5.048 17.208 20.812zm37.689 215.438c-8.362-1.542-13.203-4.952-15.92-12.017-4.338-11.28-9.01-22.441-13.004-33.84-.943-2.688-.873-7.147.761-8.932 1.712-1.87 6.502-2.927 8.853-1.881 16.069 7.147 30.674 16.623 41.602 30.719 4.097 5.283 3.496 12.16-2.03 15.933-6.162 4.206-13.46 6.75-20.262 10.018zm-151.01-48.611a114.382 114.382 0 01-15.516 41.788c-3.873 6.33-10.946 7.221-17.765 6.273-7.782-1.082-15.276-3.2-18.771-11.508-2.395-5.692.436-9.853 4.272-13.508 10.382-9.891 20.649-19.927 31.471-29.318 2.54-2.205 7.65-3.628 10.562-2.583 2.636.946 3.886 5.752 5.747 8.856zm90.579 47.471c-10.16-.37-13.59-3.524-15.43-13.714-1.761-9.751-4.314-19.375-5.695-29.17-.554-3.929-.296-9.48 2.054-11.962 3.652-3.856 8.845-1.294 12.382 2.009 8.854 8.268 18.125 16.239 25.954 25.416 9.581 11.23 6.424 20.175-7.698 24.848-3.73 1.235-7.705 1.735-11.567 2.573zm-60.288.11c-3.2-.538-6.255-.891-9.232-1.585-5.547-1.295-8.08-4.904-7.679-10.607.837-11.867 1.386-23.763 2.647-35.584.303-2.85 2.362-6.94 4.615-7.784 2.701-1.011 7.573-.296 9.6 1.653 9.91 9.532 18.181 20.47 22.2 33.862 2.663 8.876-1.603 15.857-10.518 18.189-3.796.993-7.78 1.264-11.633 1.856z" fill="#fff"/><path d="M950.573 127.84c-16.417.251-31.083-14.317-30.63-31.856.358-13.896 11.572-30.476 31.2-30.235 16.88.208 30.443 14.21 30.364 31.596-.076 16.681-14.157 30.562-30.934 30.495zm26.95-30.715a26.838 26.838 0 00-26.207-27.333c-17.28-.267-27.452 14.751-27.421 26.771.038 14.598 12.04 27.189 26.264 27.257 15.247.073 27.284-11.67 27.364-26.695z" fill="#000072"/><path d="M958.091 97.77l7.742 16.018c-2.402 0-4.52.063-6.628-.053-.428-.023-.976-.643-1.206-1.117a617.783 617.783 0 01-5.953-12.6 1.852 1.852 0 00-2.036-1.292c-1.621.084-3.25.022-5.092.022v14.945h-6.51v-35.06c4.266 0 8.479-.085 12.686.033a37.963 37.963 0 017.373.762c6.415 1.469 9.2 6.883 6.81 12.825a8.644 8.644 0 01-4.999 4.785c-.66.278-1.361.46-2.187.733zm-13.129-2.853c3.711-.319 7.205-.404 10.617-.981 2.553-.433 3.65-2.185 3.766-4.752.117-2.6-.969-4.545-3.237-5.42-3.615-1.393-7.372-.897-11.146-.876z" fill="#000072"/></svg>